<svg xmlns="http://www.w3.org/2000/svg" fill-rule="evenodd" stroke-linejoin="round" stroke-miterlimit="1.41" clip-rule="evenodd" viewBox="0 0 16 16"><path d="M7.8 2.76c.2-.08.43.01.54.2.08.14.08.33 0 .46a.46.46 0 0 1-.53.2.44.44 0 0 1-.3-.45c-.01-.18.11-.35.29-.41zm.2.14c.17.1.02.3-.13.27-.1 0-.13-.12-.08-.2.05-.07.13-.08.21-.07z"/><path fill-rule="nonzero" d="M6.87 11.46h-.01l-.1-.03-.04-.02H6.7l-.05-.02.05.01.02.01.04.01.1.04h.02zm-1.82 0c-.06 0-.11.02-.16.03h-.01l.16-.03zm.04-.02h-.02l-.01.01h.03zm.32-.1a5 5 0 0 1-.17.06h.01l.15-.05h.01zm.03 0h-.02.02zm.03-.01h.01zm.19-.07l-.1.04h-.02-.01.02l.1-.04zm.1-.04l-.06.02.05-.02zM6 11.1zm-.01 0zm-.05-.05a.76.76 0 0 1 .03.03H6h-.02a1.09 1.09 0 0 0-.03-.03zm-.04-.02l.02.01H5.9v-.01zM5.88 11l.01.01h-.01zm-.08-.04l.05.03-.05-.03zm-.1-.07l.08.05h-.01a4.12 4.12 0 0 1-.07-.05zm-.04-.02h.02-.02zm-.03-.03zm-.05-.03l.03.02.01.01-.03-.02-.01-.01zm-.07-.05a4.01 4.01 0 0 0 .01 0zm-.09-.07a4.12 4.12 0 0 0 .01.01zm-.13-.1h.01zm-.25-.24l.06.06.17.16h.01l-.17-.15-.01-.01a4.32 4.32 0 0 1-.06-.06zm-.06-.06zm-.09-.1a3.74 3.74 0 0 0 .06.07l.02.02v-.01l-.02-.01a3.4 3.4 0 0 1-.05-.06zm-.37-.47a2.63 2.63 0 0 0 .19.25V10l.16.19a4.26 4.26 0 0 1-.35-.46zM4.5 9.7l.02.02V9.7L4.5 9.7zm-.05-.09l.05.08a4.27 4.27 0 0 1-.05-.08zm-.03-.05zm-.23-.43l.01.02v-.02zm-.03-.07a3.21 3.21 0 0 0 .01.03v-.03zM4.14 9V9 9zm-.02-.05V8.94v.01zm-.02-.04v.01-.01zm-.03-.1c0 .02 0 .04.02.06V8.89v-.01l-.02-.06zm-.03-.09l.01.06-.01-.05zm-.02-.04a3.65 3.65 0 0 0 0 .01zm-.01-.05a2.42 2.42 0 0 0 0 .01zm-.02-.04v.01l.01.02v-.03zm-.01-.05v.04H4v-.02l-.01-.02zm-.02-.09v.05l.01.01v.02-.01-.02l-.01-.04zm0-.02v.01-.01zm-.02-.05zm0-.04zm-.03-.12a5.16 5.16 0 0 0 0 .01v-.01zm-.03-.14v.01l.01.06V8.1v-.02.01zm-.01-.1v-.03.03zm-.03-.16v0zm0-.03v.02-.02zm7.06-2.5l-.02.05.02-.04zm.01-.03v0zm.02-.06zm.02-.05v.03a1.57 1.57 0 0 0 0-.03zm.05-.19V5v-.01-.02zm.03-.2zm-5.2-2.18zm.03-.03a2.72 2.72 0 0 0 0-.01zm.08-.1zm0-.02v.01l.01-.01zm.1-.1zm.03-.04zm.02-.02v.01-.01zm.06-.05l-.04.04.04-.04zm.05-.06v.01h-.01l.02-.01zm.03-.02l-.02.01.02-.01zM6.37 2a5.9 5.9 0 0 0-.04.04l.03-.03h.01zm.04-.13h.11l-.02.02-.1.1.01-.02.1-.08.01-.02h-.1zm-1.6 9.64l.04-.01H4.8zm.28-.07a4.66 4.66 0 0 0 .13-.03h.01a5.2 5.2 0 0 1-.14.03zm1.54-.06l-.05-.02h-.01-.02.02l.07.03zm-.1-.04a4.2 4.2 0 0 0 0 0zm-.23-.09h-.01l-.02-.01h.01l.02.01h.01-.01zm-.62 0h-.01zm.58-.02h-.02v-.01h-.02l-.02-.01-.03-.02-.15-.08.14.08h.01l.03.02h.02l.01.01h.01l.02.01zm-.48-.02a4.65 4.65 0 0 0 .12-.06h.01a4.74 4.74 0 0 1-.15.07l.02-.01zM6 11.1l.05-.02h.01l.05-.03-.05.02a5 5 0 0 1-.06.03zm2.8-9.23a2.39 2.39 0 0 0-2.17 1.3 2.45 2.45 0 0 0 2.17 3.57v-.07V4.4 1.87zm1.38 9.1a.28.28 0 0 1 .01 0v-.01a.11.11 0 0 0-.01.01zm.03-.02l.01-.02h.01v-.01.01l-.02.01zm.04-.04zm.02-.02l.03-.03.02-.01.04-.04.01-.01-.01.01-.04.04-.02.01-.03.04v-.01zm-4.13.14a4.92 4.92 0 0 0 .38-.22l.01-.01h.01-.01l-.01.01a5.5 5.5 0 0 1-.14.08v.01c-.08.05-.16.1-.24.13zm4.24-.24a3.95 3.95 0 0 0 .05-.05l.02-.01v-.01l-.01.01-.01.01a3.5 3.5 0 0 1-.05.05zm.5-.57zm0-.02l.02-.02.01-.01.02-.03-.02.03a4 4 0 0 1-.03.04zm.07-.1l.01-.01v.01l-.02.02.01-.01zm.03-.04v.01zm.02-.03v.01zm.01-.02l.02-.02v-.02.02l-.02.02zm.05-.08l.02-.02-.02.03v-.01zm-4.31.72h.01l.02-.02a4.87 4.87 0 0 0 .35-.28l.01-.01a4.77 4.77 0 0 0 .28-.27l.02-.02.1-.12.01-.01a5.33 5.33 0 0 0 .07-.07h-.01l-.06.07v.01a4.99 4.99 0 0 1-.41.4v.01h-.01a4.8 4.8 0 0 1-.34.28l-.01.01-.02.01-.02.02h.01zm4.34-.77l.02-.03v-.01h.01v-.01.01h-.01l-.02.04zm.04-.07a2.94 2.94 0 0 0 0 .01zm.03-.05a4.27 4.27 0 0 0 0 .01zm.04-.07l.02-.05-.02.05zm-3.57.14l.03-.04.02-.01v-.01a10.67 10.67 0 0 0 .06-.07l.02-.03.04-.05c-.02.02-.03.03-.03.05h-.01l-.02.02a5.16 5.16 0 0 1-.06.09l-.02.01c0 .02-.02.03-.04.05h.01zm3.6-.22l.02-.03-.02.04zM7.84 9.6l.03-.04v.01l-.04.04zM4.4 9.55v.01zm0 0l-.16-.3-.01-.02a4.28 4.28 0 0 1-.03-.07v.01l.03.06v.01l.17.3zm6.86.02a4.5 4.5 0 0 0 .08-.18l-.01.02-.01.02a3.72 3.72 0 0 1-.06.14zm-3.4-.04l.05-.06.08-.12v.01l-.08.1v.01l-.05.07zM8 9.34l.02-.01H8v.01zm3.37 0zm.02-.06zm-3.36.03v-.02l.02-.01-.01.01-.02.03V9.3zm.05-.08a4.84 4.84 0 0 0 .07-.12 3.64 3.64 0 0 1-.07.12zm.08-.15l.01-.01v.01l-.01.02v-.01zm.02-.02L8.2 9V9l.03-.04v-.01l.03-.06v.01l-.03.05-.02.05L8.2 9l-.03.06zm.1-.2l.01-.02v.01l-.01.02v-.02zm3.13.36l.05-.15.01-.03v-.01l.01-.01a4.15 4.15 0 0 0 .06-.22v.01a3.52 3.52 0 0 1-.06.2v.03l-.02.03-.05.15v.02-.01zm.16-.53l.01-.07v-.03-.01.04l-.02.08v-.01zm.03-.14zm.02-.14v.01-.01zm-7.69-.07v-.01zm4.37.5a2.2 2.2 0 0 0 .04-.1l.01-.02v-.01a5.04 5.04 0 0 0 .1-.21v-.02a4.06 4.06 0 0 0 .05-.13l.02-.04V8.3v.02l-.01.03a5.18 5.18 0 0 1-.06.14v.02a4.65 4.65 0 0 1-.09.2l-.01.02v.02h-.01a4.33 4.33 0 0 1-.04.1zm3.33-.53zm.01-.08v.02-.02zm-3.1.04v-.02l-.01.03v-.01zm.03-.1v-.03.04-.01zm.01-.06a4.99 4.99 0 0 0 0 .02V8.1zm3.06.08a4 4 0 0 0 0 .02v-.02zm.02-.33zM8.62 8a4.67 4.67 0 0 0 .05-.19v-.04.04a5.04 5.04 0 0 1-.06.2zm3.04-.22v-.03.05-.02zm0-.06a3.76 3.76 0 0 0 0 .01v-.01zm-2.98.03v-.03h.01l-.01.04zm2.98-.1zm0-.07zm0-.06a3.35 3.35 0 0 0 0 .01v-.01zm-2.95.1V7.6 7.65v-.01zm2.94-.2v-.05l-.01-.02v-.02.1zm-2.89-.11a5.19 5.19 0 0 0 .02-.11v-.02.02a4.38 4.38 0 0 1-.02.12v-.01zm.03-.18v-.01.01zm2.84.15l-.02-.18V7.1v.02l.02.2v-.02zm-.03-.22a3.42 3.42 0 0 0-.01-.06v.06zm-.02-.1v-.02l-.02-.08v-.01.01a4.38 4.38 0 0 1 .02.1zm-2.8.14zm.03-.35a.13.13 0 0 1 .01 0v-.01H8.85a.04.04 0 0 0-.01 0 .08.08 0 0 0-.02.01zm.06-.02zm-.02 0h.04-.04zm.06 0H8.9zm.05 0h.02-.02zM9 6.72h.02-.02zm.03 0h.04-.04zm.05 0l.03-.01h.03-.03a3.28 3.28 0 0 1-.04 0zm.07-.02h.01-.01zm2.4.1l-.02-.09v-.01.01l.03.1v-.01zm-2.38-.1h0zm.02 0h.03l.01-.01h-.04zm.05-.01h.03-.03zm2.28-.01zm-2.24 0a3.16 3.16 0 0 0 .03 0l.02-.01H9.3h-.01l-.02.01zm.07-.01zm2.16-.02v.01zm-2.14.01h.02l.05-.02-.05.01-.03.01zm.1-.03h.01-.03.02zm.03 0v-.01h-.01zm2-.03l-.02-.07v.01l.02.06zm-1.93 0a2.14 2.14 0 0 0 .2-.09 2.27 2.27 0 0 1-.2.09zm1.9-.1l-.01-.03v.02zm-.03-.09a2.25 2.25 0 0 0 0 .01zm-.02-.04zm-1.64.14a1.86 1.86 0 0 0 .06-.03 2.26 2.26 0 0 0 .22-.13l.03-.02h.01v-.01a2.22 2.22 0 0 0 .15-.11l.01-.01.03-.02h-.01l-.02.02a2.3 2.3 0 0 1-.15.12h-.02a2.36 2.36 0 0 1-.25.15v.01l-.03.02h-.02zm1.58-.3a4.25 4.25 0 0 0-.04-.1v.02l.04.08zm-1.06-.05l.02-.01.01-.01.07-.07h.01a2.23 2.23 0 0 1-.1.09zm1-.09v-.01.02zm-.87-.03l.02-.01h-.01v.01zm.85-.02L11.25 6l.02.03zm-.82 0l.09-.11a2.25 2.25 0 0 0 .08-.1l-.02.02-.05.07h-.01l-.1.11zm.19-.24zm.01-.02l.01-.01-.01.01zm.04-.06l.02-.03v-.01l-.02.04zm.03-.05zm.02-.02zm.5.34l-.01-.03v-.02h-.01v-.01a3.07 3.07 0 0 0-.03-.05l-.01-.02a4.03 4.03 0 0 0-.14-.24v.02c.06.07.1.15.14.22v.02a4.21 4.21 0 0 1 .03.05l.01.01v.02l.02.03zm-.5-.36l.02-.03c0 .02-.01.02-.02.03zm.03-.04l.02-.04-.02.04zm.03-.05zm.22.05L11 5.55a5.25 5.25 0 0 0-.04-.06l.02.02a4.18 4.18 0 0 1 .04.07zm-.22-.07l.01-.01a2.96 2.96 0 0 0 0 .02zm.15-.04zm-.12-.01zm0-.01zm.1 0v-.02.03-.01zm-.08-.03l.01-.03v.02l-.01.01zm.02-.05zm.02.01l-.02-.02.03.03h-.01zm.03-.13v.01zm0 0v-.01zm.01-.05V5.2v.01zm.02-.05l.03-.13V5l-.03.14zM11 5zm0-.04zm.01-.04l.01-.03v-.01.04zm.02-.1zm.01-.07v-.03.03zm-.1-.18h-.37a76.36 76.36 0 0 1 .22 0h.15zm-.58 0H9.23h1.26-.14zm-1.33 0h.07H8.88h.14zm-.2-2.8v.06-.05zm0-.14v-.07a40.13 40.13 0 0 0 0-.28v-.03a25.28 25.28 0 0 1 0 .3v.18-.1zm2.24 2.97a4.15 4.15 0 0 1 .85 4.3 4.16 4.16 0 0 1-1.74 2.1v-.01l-.01.02a4.2 4.2 0 0 1-3.2.47h-.02l-.05-.02.05.02h.01c-.02.37-.07.73-.15 1.09a3.96 3.96 0 0 1-.86 1.75c-.32.34-.73.59-1.2.59v-3.39h.04-.04c-.3.05-.62.1-.92.07V8.17l.01-.4A4.24 4.24 0 0 1 5.11 4.4c.07-.65.31-1.27.7-1.78H5.8a.75.75 0 0 1-.71-.75c.38-.02.76 0 1.15-.01a6.58 6.58 0 0 0 .14.01H6.4a2.39 2.39 0 0 1-.15-.01.77.77 0 0 1-.6-.75H8.8v.12-.02-.1c.89 0 1.77.35 2.4.97.54.51.9 1.2 1.01 1.94.05.33.04.65.05.98a1.8 1.8 0 0 0-1.23-.43l.02.03z"/></svg>