<?xml version="1.0" encoding="UTF-8" standalone="no"?>
<!DOCTYPE svg PUBLIC "-//W3C//DTD SVG 1.1//EN" "http://www.w3.org/Graphics/SVG/1.1/DTD/svg11.dtd">
<svg width="100%" height="100%" viewBox="0 0 16 16" version="1.1" xmlns="http://www.w3.org/2000/svg" xmlns:xlink="http://www.w3.org/1999/xlink" xml:space="preserve" style="fill-rule:evenodd;clip-rule:evenodd;stroke-linejoin:round;stroke-miterlimit:1.41421;">
    <g transform="matrix(1.0144,0,0,1.14315,-0.2536,-1.12494)">
        <path d="M12.27,9.382L8.092,9.382C8.066,9.579 8.035,9.785 8,10C8,9.788 7.994,9.582 7.982,9.382C7.982,9.382 1.954,9.382 1.954,9.382C2.354,9.664 2.841,10 4,10C0.91,11.2 4,14 4,14L3,14C2,14 2,15 2,15L8,15C11,15 13,14 13,11.53C13,10.82 12.7,10.048 12.27,9.382C12.27,9.382 12.27,9.382 12.27,9.382Z"/>
    </g>
</svg>
