<?xml version="1.0" encoding="UTF-8" standalone="no"?>
<!DOCTYPE svg PUBLIC "-//W3C//DTD SVG 1.1//EN" "http://www.w3.org/Graphics/SVG/1.1/DTD/svg11.dtd">
<svg width="100%" height="100%" viewBox="0 0 16 12" version="1.1" xmlns="http://www.w3.org/2000/svg" xmlns:xlink="http://www.w3.org/1999/xlink" xml:space="preserve" style="fill-rule:evenodd;clip-rule:evenodd;stroke-linejoin:round;stroke-miterlimit:1.41421;">
    <g transform="matrix(1.0144,0,0,1.14315,-0.249723,-5.94315)">
        <path d="M15.997,5.199L8.065,5.199C8.181,6.49 8.381,7.676 8,10C8,7.792 7.333,6.224 6.508,5.2C6.508,5.199 6.507,5.199 6.507,5.199L1.011,5.199C1.011,5.199 0.685,6.185 0.68,6.87C0.88,7.2 2.21,7.47 3.15,7.3C4.04,7.35 3.82,8.09 3.62,8.29C2.78,9.13 2,8 1,8C0,8 0,9 1,9C2,9 2,10 4,10C0.91,11.2 4,14 4,14L3,14C2,14 2,15 2,15L8,15C11,15 13,14 13,11.53C13,10.68 12.57,9.74 12,9C10.89,7.54 12.23,6.32 13,7C13.752,7.664 15.899,7.985 15.997,5.2L15.997,5.199ZM2.5,6C2.22,6 2,5.78 2,5.5C2,5.386 2.036,5.283 2.098,5.2L2.098,5.199L2.902,5.199C2.964,5.282 3,5.386 3,5.5C3,5.78 2.78,6 2.5,6Z"/>
    </g>
</svg>
