<?xml version="1.0" encoding="UTF-8" standalone="no"?>
<!DOCTYPE svg PUBLIC "-//W3C//DTD SVG 1.1//EN" "http://www.w3.org/Graphics/SVG/1.1/DTD/svg11.dtd">
<svg width="100%" height="100%" viewBox="0 0 16 16" version="1.1" xmlns="http://www.w3.org/2000/svg" xmlns:xlink="http://www.w3.org/1999/xlink" xml:space="preserve" style="fill-rule:evenodd;clip-rule:evenodd;stroke-linejoin:round;stroke-miterlimit:1.41421;">
    <g transform="matrix(1.0144,0,0,1.14315,-0.2536,-1.12494)">
        <path d="M15.997,5.183L8.063,5.183C8.18,6.48 8.383,7.667 8,10C8,7.779 7.326,6.207 6.494,5.183C6.494,5.183 1.019,5.183 1.019,5.183C0.822,5.622 0.685,6.176 0.68,6.87C0.88,7.2 2.21,7.47 3.15,7.3C4.04,7.35 3.82,8.09 3.62,8.29C2.78,9.13 2,8 1,8C0,8 0,9 1,9C2,9 2,10 4,10C0.91,11.2 4,14 4,14L3,14C2,14 2,15 2,15L8,15C11,15 13,14 13,11.53C13,10.68 12.57,9.74 12,9C10.89,7.54 12.23,6.32 13,7C13.754,7.666 15.908,7.987 15.997,5.183C15.997,5.183 15.997,5.183 15.997,5.183ZM2.5,6C2.22,6 2,5.78 2,5.5C2,5.379 2.041,5.269 2.111,5.183C2.111,5.183 2.111,5.183 2.111,5.183L2.889,5.183C2.959,5.269 3,5.379 3,5.5C3,5.78 2.78,6 2.5,6Z"/>
    </g>
</svg>
