<?xml version="1.0" encoding="UTF-8" standalone="no"?>
<!DOCTYPE svg PUBLIC "-//W3C//DTD SVG 1.1//EN" "http://www.w3.org/Graphics/SVG/1.1/DTD/svg11.dtd">
<svg width="100%" height="100%" viewBox="0 0 16 16" version="1.1" xmlns="http://www.w3.org/2000/svg" xmlns:xlink="http://www.w3.org/1999/xlink" xml:space="preserve" style="fill-rule:evenodd;clip-rule:evenodd;stroke-linejoin:round;stroke-miterlimit:1.41421;">
    <g transform="matrix(1.0144,0,0,1.14315,-0.2536,-1.14315)">
        <path d="M15.805,3.765C15.804,3.765 15.773,3.765 15.773,3.765C15.773,3.765 15.698,3.765 15.664,3.765C13.807,3.767 8.018,3.765 8.009,3.765C8.008,3.765 8.006,3.764 8.006,3.765C8.002,3.815 8,3.869 8,3.92C8,5.86 8.5,6.95 8,10C8,6.116 5.936,4.213 4.58,3.765C4.562,3.76 4.542,3.762 4.52,3.762C4.496,3.763 4.469,3.761 4.442,3.762C4.384,3.765 4.321,3.765 4.254,3.765C4.026,3.766 3.769,3.76 3.648,3.762C3.217,3.772 2.529,3.765 2.529,3.765C2.529,3.765 2.491,3.765 2.468,3.765C2.441,3.765 2.425,3.766 2.375,3.765C2.36,3.764 2.338,3.765 2.327,3.765C2.326,3.765 2.294,3.762 2.293,3.762C1.797,4.037 0.695,4.872 0.68,6.87C0.88,7.2 2.21,7.47 3.15,7.3C4.04,7.35 3.82,8.09 3.62,8.29C2.78,9.13 2,8 1,8C0,8 0,9 1,9C2,9 2,10 4,10C0.91,11.2 4,14 4,14L3,14C2,14 2,15 2,15L8,15C11,15 13,14 13,11.53C13,10.68 12.57,9.74 12,9C10.89,7.54 12.23,6.32 13,7C13.77,7.68 16,8 16,5C16,4.571 15.93,4.152 15.805,3.765C15.805,3.765 15.805,3.765 15.805,3.765ZM2.5,6C2.22,6 2,5.78 2,5.5C2,5.22 2.22,5 2.5,5C2.78,5 3,5.22 3,5.5C3,5.78 2.78,6 2.5,6Z"/>
    </g>
</svg>
