<?xml version="1.0" encoding="UTF-8" standalone="no"?>
<!DOCTYPE svg PUBLIC "-//W3C//DTD SVG 1.1//EN" "http://www.w3.org/Graphics/SVG/1.1/DTD/svg11.dtd">
<svg width="100%" height="100%" viewBox="0 0 16 15" version="1.1" xmlns="http://www.w3.org/2000/svg" xmlns:xlink="http://www.w3.org/1999/xlink" xml:space="preserve" style="fill-rule:evenodd;clip-rule:evenodd;stroke-linejoin:round;stroke-miterlimit:1.41421;">
    <g transform="matrix(1.0144,0,0,1.14315,-0.2536,-2.72494)">
        <path d="M15.036,2.384C15.036,2.384 15.036,2.384 15.036,2.384L8.593,2.384C8.593,2.384 8.593,2.384 8.593,2.385C8.217,2.83 8,3.36 8,3.92C8,5.86 8.5,6.95 8,10C8,5.5 5.23,3.66 4,3.66C4.05,3.16 3.52,3 3.52,3C3.52,3 3.3,3.11 3.22,3.34C2.95,3.03 2.66,3.07 2.66,3.07L2.53,3.65C2.53,3.65 0.7,4.29 0.68,6.87C0.88,7.2 2.21,7.47 3.15,7.3C4.04,7.35 3.82,8.09 3.62,8.29C2.78,9.13 2,8 1,8C0,8 0,9 1,9C2,9 2,10 4,10C0.91,11.2 4,14 4,14L3,14C2,14 2,15 2,15L8,15C11,15 13,14 13,11.53C13,10.68 12.57,9.74 12,9C10.89,7.54 12.23,6.32 13,7C13.77,7.68 16,8 16,5C16,4.004 15.638,3.084 15.036,2.384ZM2.5,6C2.22,6 2,5.78 2,5.5C2,5.22 2.22,5 2.5,5C2.78,5 3,5.22 3,5.5C3,5.78 2.78,6 2.5,6Z"/>
    </g>
</svg>
