<?xml version="1.0" encoding="UTF-8" standalone="no"?>
<!DOCTYPE svg PUBLIC "-//W3C//DTD SVG 1.1//EN" "http://www.w3.org/Graphics/SVG/1.1/DTD/svg11.dtd">
<svg width="100%" height="100%" viewBox="0 0 16 16" version="1.1" xmlns="http://www.w3.org/2000/svg" xmlns:xlink="http://www.w3.org/1999/xlink" xml:space="preserve" xmlns:serif="http://www.serif.com/" style="fill-rule:evenodd;clip-rule:evenodd;stroke-linejoin:round;stroke-miterlimit:1.41421;">
    <g transform="matrix(0.0633663,0,0,0.0633663,0.318416,0.00538614)">
        <path d="M224.74,109L140.63,24.9L224.74,24.9L224.74,109Z" style="fill-rule:nonzero;"/>
        <path d="M81.72,0L129.4,0L165.84,36.43L81.72,36.43L81.72,0Z" style="fill-rule:nonzero;"/>
        <path d="M84.45,84.12L0.34,0L101.47,0L101.47,84.11L84.45,84.12ZM158.34,168.22L242.45,252.33L158.34,252.33L158.34,168.22Z" style="fill-rule:nonzero;"/>
        <path d="M101.47,168.23L17.37,84.11L101.48,84.11L101.48,168.22L101.47,168.23ZM192.05,125.66L125,58.57L192.08,58.57L192.05,125.66ZM199.89,244.5L123.61,168.23L199.89,168.23L199.89,244.5Z" style="fill-rule:nonzero;"/>
        <path d="M101.47,67L34.47,0L101.47,0L101.47,67Z" style="fill-rule:nonzero;"/>
        <path d="M123.95,168.22L208.06,252.33L123.95,252.33L123.95,168.22Z" style="fill-rule:nonzero;"/>
        <path d="M209.08,201.8L125.08,117.8L209.08,117.8L209.08,201.8Z" style="fill-rule:nonzero;"/>
        <path d="M125,58.57L208.09,141.66L125,141.66L125,58.57Z" style="fill-rule:nonzero;"/>
        <path d="M101.47,252L0,150.51L101.47,150.51L101.47,252Z" style="fill-rule:nonzero;"/>
    </g>
</svg>
