<?xml version="1.0" encoding="UTF-8" standalone="no"?>
<!DOCTYPE svg PUBLIC "-//W3C//DTD SVG 1.1//EN" "http://www.w3.org/Graphics/SVG/1.1/DTD/svg11.dtd">
<svg width="100%" height="100%" viewBox="0 0 16 16" version="1.1" xmlns="http://www.w3.org/2000/svg" xmlns:xlink="http://www.w3.org/1999/xlink" xml:space="preserve" xmlns:serif="http://www.serif.com/" style="fill-rule:evenodd;clip-rule:evenodd;stroke-linejoin:round;stroke-miterlimit:1.41421;">
    <g id="Layer1" transform="matrix(0.04,0,0,0.04,0,0)">
        <path d="M259.17,5.08C263.44,6.24 267.2,10.1 270.43,12.99C265.46,19.34 259.61,25.15 254.22,31.15C250.79,35.09 247.3,38.97 243.85,42.89C239.67,47.62 234.87,52.02 230.99,57C229.04,59.5 228.31,62.29 227.46,65.29C225.5,72.47 223.72,79.67 221.52,86.77C220.75,89.2 220.44,91.66 220.28,94.18C226.44,94.39 232.68,94.21 238.81,94.84C249.7,96.03 260.89,97.06 271.52,99.8C274.72,100.56 277.28,102.24 279.78,104.32C277.5,108.21 273.75,109.39 269.76,110.91C256.05,115.56 242.35,117.36 228.06,119.11C223.7,119.59 219.34,119.39 214.97,119.87C207.46,120.85 199.6,120.64 192,120.69C185.38,120.61 178.52,120.78 171.99,119.91C167.58,119.36 163.17,119.58 158.77,119.18C144.91,117.46 131.58,115.83 118.22,111.5C114.03,110.04 110.07,108.58 107.2,104.99C108.25,103.58 108.96,102.21 110.7,101.54C116.88,98.89 123.88,97.84 130.51,96.9C152.24,93.76 174.1,93.02 196.03,93.26C198.45,93.35 200.76,92.93 203.09,92.37C205.59,82.02 208.4,71.76 211.01,61.43C212.1,57.43 212.48,53.56 215.42,50.41C224.79,39.84 235.21,30.2 244.69,19.73C249.41,14.82 253.91,9.4 259.17,5.08Z" style="fill-rule:nonzero;"/>
        <path d="M277.8,111.29C277.89,119.32 276.1,127.05 275.54,135.01C272.79,159.28 269.87,183.64 267.16,207.88C266.75,211.61 263,214.12 260.39,216.43C256.06,219.91 252.47,223.82 247.35,226.23C247.54,224.87 247.48,223.64 248.45,222.56C252.75,217.26 257.3,212.78 260.24,206.42C261.03,204.56 261.91,202.82 261.16,200.78C259.59,197.69 256.6,195.42 253.01,195.57C248.2,195.5 243.69,199.7 239.95,202.37C239.02,200.6 237.81,199.01 236.88,197.24C235.33,197.7 234.02,197.44 232.97,198.9C229.31,203.2 229.58,209.86 225.53,213.51C222.38,216.6 218.81,219.6 215.21,222.13C213.39,223.51 211.36,223.71 209.18,223.97C209.86,218.88 211.91,214.39 213.83,209.69C217.06,201.61 220.43,193.59 223.75,185.55C225.61,180.94 228.26,176.45 229.54,171.65C229.8,169.93 230.25,167.53 228.41,166.52C226.62,166.07 223.66,165.76 222.44,167.49C220.26,170.22 219.21,174 217.91,177.21C213.5,189.42 207.97,201.15 203.65,213.39C202.65,215.98 201.77,218.84 200.2,221.15C198.3,223.71 195.33,224.41 192.5,225.51C191.25,216.12 197.05,209.56 199.17,200.9C199.96,198.37 198.22,196.27 195.91,195.46C192.99,195.56 191.9,198.7 190.85,200.94C187.75,208.93 184.56,217.07 177.52,222.48C176.12,223.7 172.8,224.56 171.43,223.07C171.14,218.4 173.48,213.39 175.42,209.23C176.86,206.02 179.35,202.64 179.75,199.11C180.27,196.42 176.36,194.81 174.27,195.94C171.54,197.42 169.99,201.07 168.74,203.77C166.3,209.58 163.99,215.51 162.26,221.58C161.4,225.05 160.61,228.86 163.33,231.74C165.39,234.24 169.3,233.89 172.2,233.63C177.18,233.1 180.61,229.33 184.17,226.21C184.91,228.39 184.96,232.14 187.18,233.31C191.37,234.89 196.03,231.91 199.85,230.31C201.88,231.75 204.39,234.4 206.98,234.42C212.15,234.08 216.77,229.97 220.97,227.26C218.91,234.05 215.18,239.79 212.35,246.21C211.09,249.27 209.69,253.13 210.58,256.44C211.84,258.66 214.6,259.11 216.56,257.55C219.67,255.17 221,250.57 222.32,247.03C224.98,239.13 228.48,231.66 231.95,224.08C234.96,217.8 239.06,210.98 244.81,206.86C246.99,205.17 249.3,205.36 251.89,205.22C248.24,212.95 241.45,217.43 237.91,225.08C236.94,227.41 236.71,230.39 238.79,232.22C240.95,234.37 245.32,233.88 248.09,233.51C254.71,232.21 260.36,226.21 265.47,222.11C264.79,229.16 264.3,236.17 263.09,243.16C261.77,258.05 259.61,272.84 258.2,287.71C257.74,291.33 257.09,294.67 254.02,297.02C248.8,300.74 241.96,302.62 235.78,304.07C215.29,308.51 193.9,309.2 173.03,307.68C163.63,307.37 154.22,305.76 145.01,303.93C139.11,302.54 132.71,300.77 127.67,297.32C123.12,294.12 123.84,287.86 123.38,283C122.35,272.37 121.35,261.72 120.29,251.1C119.44,245.65 119.19,240.22 119.25,234.71C122.87,234.58 127.14,235.02 130.4,233.29C135.26,230.9 139.4,226.49 143.82,223.21C142.4,228.97 139.88,234.5 138.87,240.33C138.46,242.45 139.72,243.85 140.4,245.74C144.38,245.67 145.76,243.93 147.13,240.44C150.83,229.08 153.53,217.21 157.92,206.06C159.47,201.87 161.42,196.58 160.27,192.11C158.9,189.42 154.64,189.58 153.18,192.06C151,195.53 150.23,200.02 148.78,203.84C146.85,209.53 142.22,213.92 138.11,218.12C135.07,221.11 131.55,224.37 127.06,224.65C125.4,223.98 124.09,222.7 123.73,220.9C122.58,214.12 124.65,207.34 126.86,200.99C130.19,191.44 135.29,182.57 142.02,175.02C144.93,171.9 148.34,168.63 152.94,168.92C156.66,169.17 157.86,172.51 159.86,175.1C160.94,176.38 162.04,178.9 164.01,178.61C165.63,178.77 166.61,177.7 167.42,176.45C168.06,173.61 168.04,170.14 166.21,167.7C163.17,163.38 158.5,160.03 153.01,160.14C147.17,159.71 142.34,162.37 138.03,166.02C132.64,170.77 127.85,175.99 124.34,182.28C121.2,187.52 119.16,193.24 115.8,198.32C113.98,193.1 114.71,187.99 113.93,182.64C111.72,165.41 110.95,148.15 108.62,131C108.49,124.75 107.69,118.6 107.39,112.37C113.72,113.79 119.82,116 126.2,117.23C140.63,120.14 155.5,122.34 170.22,122.74C177.68,123.59 185.15,123.49 192.64,123.6C199.71,123.58 206.75,123.64 213.78,122.79C229.25,122.12 244.59,120.07 259.68,116.62C265.86,115.27 271.67,112.77 277.8,111.29Z" style="fill-rule:nonzero;"/>
        <path d="M130.4,301.95C135.75,303.32 140.89,305.28 146.32,306.36C153.17,307.71 160.11,308.61 167.02,309.57C175.06,310.74 183.11,309.89 191.14,311.11C199.71,310.06 208.27,310.67 216.81,309.35C224.33,308.16 232.24,307.35 239.53,305.34C243.49,304.25 247.25,302.71 251.3,301.93C249.49,307.74 244.86,312 242.98,317.62C242.19,321.59 242.67,325.78 242.17,329.81C241.39,335.85 241.4,341.93 240.84,348C240.13,357.23 240.86,366.72 239.42,375.83C239.29,378.14 237,379.23 235.35,380.41C227.67,385.1 219.82,389 210.93,390.81C190.74,395.65 169.21,391.41 150.97,381.97C147.94,380.15 144.01,379.22 143.86,375.05C143.3,367.71 142.53,360.36 142.43,353C142.28,345.3 140.71,337.69 140.53,329.98C140.28,325.12 140.52,319.37 137.92,315.08C135.36,310.67 132.22,306.79 130.4,301.95Z" style="fill-rule:nonzero;"/>
    </g>
</svg>
