<svg xmlns="http://www.w3.org/2000/svg" fill-rule="evenodd" stroke-linejoin="round" stroke-miterlimit="1.41421" clip-rule="evenodd" viewBox="0 0 16 16"><path fill-rule="nonzero" d="M6.5625 5c.0625.3125 0 .5625-.0625.8125l.25.0625.25-.4375c.166125-.1934375.4088125-.304875.66375-.304875.383 0 .7235.251375.83625.617375l.4375 1.1875-.125-1.25c-.0026875-.03-.0040625-.0600625-.0040625-.0901875 0-.5485625.451375-1 1-1 .2575625 0 .5055.0995625.6915625.2776875l.25.5625.5625-.1875c.0605625-.0154375.1228125-.02325.1853125-.02325.4114375 0 .75.3385625.75.75 0 .2666875-.14225.514125-.3728125.64825-.1875.125-.4375.125-.6875.1875l-.875.3125-.1875.5625c-.25.3125-.75.375-1.0625.125-.25-.0625-.3125-.25-.4375-.5-1.3125.0625-2.6875-.125-3.9375-.5-.25 0-.4375-.0625-.625-.1875-.25-.3125-.25-.75 0-1.0625.1875-.1875.375-.25.625-.25.0625-.375.25-.625.5625-.8125.5-.25 1.125 0 1.3125.5z"/><path fill-rule="nonzero" d="M8.5 1.125l.1875.1875c-.3125.25-.5.5-.625.875-.125.25-.125.5625-.125.875.1875 0 .375 0 .5625-.125.3125-.0625.625-.25.9375-.25.5 0 .9375.3125 1.25.6875.375.4375.5 1 .5 1.625l-.25.0625c-.125-.1875-.25-.4375-.5-.5625-.5-.25-1.0625-.1875-1.5.125-.1875.1875-.3125.375-.375.625-.1875-.1875-.4375-.3125-.6875-.375-.375-.0625-.6875.0625-1 .3125-.0625-.25-.1875-.5-.375-.6875-.375-.375-.9375-.4375-1.375-.25l-.5.4375c.125-.625.375-1.25.9375-1.625.375-.3125.875-.4375 1.375-.3125l.9375.3125-.0625-.6875c.0625-.4375.3125-.8125.5625-1.125l.125-.125z"/><path fill-rule="nonzero" d="M6.0625.4375C6.5.625 6.875.875 7.1875 1.25c.3125.4375.4375.9375.375 1.4375-.625-.25-1.125-.5625-1.375-1.1875C6 1.1875 6 .8125 6.0625.4375z"/><path d="M5.375 7.3125l.6875.125-.375 6h.6875l.375-5.875 1.6875.0625c.1875.3125.5.5625.875.625.5.0625.9375-.1875 1.1875-.625l.0625-.3125.6875-.1875.0625.6875c.4375-.0625.9375-.125 1.4375-.0625.1875 0 .4375.0625.5625.1875.125.1875.125.375.125.5625.125 1.375.375 2.6875.375 4.0625.0625.3125-.1875.4375-.4375.5625-.5.25-1.125.3125-1.6875.3125l.125 1.4375c-.9375.5-2.0625.6875-3.125.8125-1.5.0625-3.125-.125-4.5625-.6875l.5-7.875.75.1875zm6.25 1.4375c.25-.0625.5625-.125.8125-.0625.125.0625.125.25.1875.375l.3125 3.125c-.3125.1875-.6875.25-1 .25L11.625 8.75zm-2.3125 0l-.1875.0625c-.1050625.0693125-.1684375.187125-.1684375.313 0 .1985.1576875.3644375.3559375.3745.125 0 .25-.0625.3125-.1875.033-.0570625.050375-.1218125.050375-.1876875 0-.201125-.161875-.3683125-.362875-.3748125z"/></svg>