<?xml version="1.0" encoding="UTF-8" standalone="no"?>
<!DOCTYPE svg PUBLIC "-//W3C//DTD SVG 1.1//EN" "http://www.w3.org/Graphics/SVG/1.1/DTD/svg11.dtd">
<svg width="100%" height="100%" viewBox="0 0 16 16" version="1.1" xmlns="http://www.w3.org/2000/svg" xmlns:xlink="http://www.w3.org/1999/xlink" xml:space="preserve" xmlns:serif="http://www.serif.com/" style="fill-rule:evenodd;clip-rule:evenodd;stroke-linejoin:round;stroke-miterlimit:1.41421;">
    <g transform="matrix(0.0575722,0,0,0.0575722,-6.67837,-6.70969)">
        <path d="M133.132,219.333L243.533,335.448L190.73,219.333L133.132,219.333ZM205.287,219.333L255.835,334.237L306.383,219.333L205.287,219.333ZM374.878,219.333L320.94,219.333L268.28,335.448L374.878,219.333ZM211.57,206.009L302.227,206.009L256.899,158.664L211.57,206.009ZM334.854,154.614L268.834,154.614L314.068,201.862L334.854,154.614ZM176.816,154.614L198.271,203.385L244.966,154.614L176.816,154.614ZM375.017,206.009L345.969,162.438L326.802,206.009L375.017,206.009ZM137.348,206.009L184.868,206.009L166.129,163.411L137.348,206.009ZM163.588,147L348.228,147L393.912,215.526L254.956,364L116,217.43L163.588,147Z" style="fill-rule:nonzero;"/>
    </g>
</svg>
