<?xml version="1.0" encoding="UTF-8" standalone="no"?>
<!DOCTYPE svg PUBLIC "-//W3C//DTD SVG 1.1//EN" "http://www.w3.org/Graphics/SVG/1.1/DTD/svg11.dtd">
<svg width="100%" height="100%" viewBox="0 0 16 16" version="1.1" xmlns="http://www.w3.org/2000/svg" xmlns:xlink="http://www.w3.org/1999/xlink" xml:space="preserve" xmlns:serif="http://www.serif.com/" style="fill-rule:evenodd;clip-rule:evenodd;stroke-linejoin:round;stroke-miterlimit:1.41421;">
    <g transform="matrix(0.666667,0,0,0.666667,0,0)">
        <rect x="0" y="0" width="24" height="24" style="fill:none;"/>
    </g>
    <g transform="matrix(0.666667,0,0,0.666667,0,0)">
        <path d="M24,2.5L24,21.5L18,24L0,18.5L0,17.939L18,19.484L18,0L24,2.5ZM1,13.111L4.385,10L1,6.889L2.418,6.062L5.853,8.65L12,3L15,4.456L15,15.544L12,17L5.853,11.35L2.419,13.939L1,13.111ZM7.644,10L12,13.283L12,6.717L7.644,10Z" style="fill-rule:nonzero;"/>
    </g>
</svg>
