<?xml version="1.0" encoding="UTF-8" standalone="no"?>
<!DOCTYPE svg PUBLIC "-//W3C//DTD SVG 1.1//EN" "http://www.w3.org/Graphics/SVG/1.1/DTD/svg11.dtd">
<svg width="100%" height="100%" viewBox="0 0 16 16" version="1.1" xmlns="http://www.w3.org/2000/svg" xmlns:xlink="http://www.w3.org/1999/xlink" xml:space="preserve" style="fill-rule:evenodd;clip-rule:evenodd;stroke-linejoin:round;stroke-miterlimit:1.41421;">
    <g transform="matrix(0.194904,0,0,0.194904,-0.574771,6.44069)">
        <g transform="matrix(1,0,0,1,0,-54.1565)">
            <path d="M57.359,103.202C57.359,103.202 59.302,93.817 67.425,82.552C73.071,79.29 78.733,75.293 83.529,70.498C87.963,48.51 81.232,24.919 81.232,24.919C81.232,24.919 57.641,18.189 35.654,22.623C30.857,27.421 26.862,33.083 23.6,38.727C12.332,46.848 2.949,48.791 2.949,48.791C2.949,48.791 10.454,53.944 14.075,59.791C12.533,64.239 11.808,67.105 11.808,67.105C12.395,69.85 14.132,73.052 16.529,76.283C14.874,77.595 12.934,78.96 10.826,80.101C10.574,80.24 10.316,80.373 10.059,80.503C11.868,86.47 19.858,93.985 25.678,96.01C25.796,95.777 25.919,95.547 26.044,95.318C27.218,93.153 28.627,91.164 29.971,89.479C33.232,91.845 36.419,93.608 39.045,94.34C39.045,94.34 41.914,93.616 46.361,92.074C52.206,95.696 57.359,103.202 57.359,103.202ZM40.775,83.328C37.428,81.878 32.983,78.308 29.953,75.276C25.856,71.179 23.636,67.689 22.784,65.517C24.223,60.612 29.751,43.668 40.368,32.277C53.172,30.103 66.585,32.44 72.423,33.727C73.709,39.563 76.049,52.979 73.873,65.782C62.552,76.343 45.853,81.835 40.775,83.328Z" style="fill-rule:nonzero;"/>
        </g>
        <g transform="matrix(1,0,0,1,0,-54.1565)">
            <circle cx="52.002" cy="54.15" r="8.769"/>
        </g>
    </g>
</svg>
