<?xml version="1.0" encoding="UTF-8" standalone="no"?>
<!DOCTYPE svg PUBLIC "-//W3C//DTD SVG 1.1//EN" "http://www.w3.org/Graphics/SVG/1.1/DTD/svg11.dtd">
<svg width="100%" height="100%" viewBox="0 0 16 17" version="1.1" xmlns="http://www.w3.org/2000/svg" xmlns:xlink="http://www.w3.org/1999/xlink" xml:space="preserve" style="fill-rule:evenodd;clip-rule:evenodd;stroke-linejoin:round;stroke-miterlimit:1.41421;">
    <g transform="matrix(0.0625,0,0,0.0625,0,1.72734)">
        <path d="M256,21.928C255.539,10.33 255.211,-7.312 229.397,3.233C186.328,19.06 143.011,34.303 100.33,51.148C67.99,63.918 32.57,77.91 14.336,146.264C9.56,164.174 4.78,182.088 0,200L41.055,200C44.918,185.514 48.785,171.03 52.65,156.545C65.705,107.595 91.346,97.47 114.755,88.227C148.349,74.97 182.391,62.856 216.292,50.397L216.292,200L256,200L256,21.928Z" style="fill-rule:nonzero;"/>
    </g>
    <g transform="matrix(0.0625,0,0,0.0625,0,1.72734)">
        <path d="M98.982,108.154C94.806,110.476 90.812,113.168 87.066,116.503C74.446,127.733 67.604,143.768 63.316,159.779L52.521,200.058L98.982,200.058L98.982,108.154Z" style="fill-rule:nonzero;"/>
    </g>
    <g transform="matrix(0.0625,0,0,0.0625,0,1.72734)">
        <path d="M150.721,87.13C139.973,91.131 129.261,95.224 118.584,99.41C115.73,100.532 112.911,101.645 110.145,102.813L110.145,200.058L150.721,200.058L150.721,87.129L150.721,87.13Z" style="fill-rule:nonzero;"/>
    </g>
    <g transform="matrix(0.0625,0,0,0.0625,0,1.72734)">
        <path d="M204.652,200.058L204.652,67.39C190.39,72.574 176.12,77.737 161.883,82.989L161.883,200.057L204.652,200.057L204.652,200.058Z" style="fill-rule:nonzero;"/>
    </g>
</svg>
