<svg xmlns="http://www.w3.org/2000/svg" fill-rule="evenodd" stroke-linejoin="round" stroke-miterlimit="2" clip-rule="evenodd" viewBox="0 0 16 16"><path fill-rule="nonzero" d="M7.375 1.665625c-.0296875.003125-.125.0140625-.2109375.021875-1.221875.128125-2.425.6453125-3.40625 1.4671875-.18125.15-.59375.5625-.74375.74375-.8125.9703125-1.2875 2.059375-1.4625 3.3484375-.0390625.2859375-.0390625 1.2515625 0 1.5375.175 1.2890625.65 2.378125 1.4625 3.3484375.15.18125.5625.59375.74375.74375.9703125.8125 2.059375 1.2875 3.3484375 1.4625.2859375.0390625 1.2515625.0390625 1.5375 0 1.2890625-.175 2.378125-.65 3.3484375-1.4625.18125-.15.59375-.5625.74375-.74375.8125-.9703125 1.2875-2.059375 1.4625-3.3484375.0390625-.2859375.0390625-1.2515625 0-1.5375-.175-1.2890625-.65-2.378125-1.4625-3.3484375-.15-.18125-.5625-.59375-.74375-.74375C11.025 2.3453125 9.925 1.8640625 8.653125 1.69375c-.1375-.01875-.3375-.0265625-.7078125-.0296875C7.6625 1.6609375 7.4046875 1.6625 7.375 1.665625z"/><path fill="#fff" fill-rule="nonzero" d="M7.375 1.665625c-.0296875.003125-.125.0140625-.2109375.021875-1.221875.128125-2.425.6453125-3.40625 1.4671875-.18125.15-.59375.5625-.74375.74375-.8125.9703125-1.2875 2.059375-1.4625 3.3484375-.0390625.2859375-.0390625 1.2515625 0 1.5375.175 1.2890625.65 2.378125 1.4625 3.3484375.15.18125.5625.59375.74375.74375.9703125.8125 2.059375 1.2875 3.3484375 1.4625.2859375.0390625 1.2515625.0390625 1.5375 0 1.2890625-.175 2.378125-.65 3.3484375-1.4625.18125-.15.59375-.5625.74375-.74375.8125-.9703125 1.2875-2.059375 1.4625-3.3484375.0390625-.2859375.0390625-1.2515625 0-1.5375-.175-1.2890625-.65-2.378125-1.4625-3.3484375-.15-.18125-.5625-.59375-.74375-.74375C11.025 2.3453125 9.925 1.8640625 8.653125 1.69375c-.1375-.01875-.3375-.0265625-.7078125-.0296875C7.6625 1.6609375 7.4046875 1.6625 7.375 1.665625zm.078125.675c0 .1828125.0125.5796875.0296875.95625.009375.184375.0203125.4484375.025.5859375.0171875.4875.06875 1.7671875.0765625 1.88125l.0078125.1140625-.0703125-.0078125c-.0390625-.003125-.075-.0125-.08125-.0171875-.0046875-.00625-.015625-.1140625-.021875-.240625-.028125-.55625-.1203125-2.7140625-.1296875-3.0296875l-.009375-.346875.04375-.00625c.0234375-.003125.0625-.0078125.0875-.009375L7.453125 2.21875v.121875zm1.4953125-.0375c.0015625.0015625.00625.4734375.0109375 1.0484375.00625.5765625.0140625 1.09375.01875 1.15.0046875.0578125.003125.1078125-.0046875.1109375-.00625.0046875-.0453125.0046875-.084375 0l-.071875-.00625-.0109375-.4546875C8.8 3.9 8.7921875 3.621875 8.7890625 3.53125c-.0125-.2765625-.0234375-1.215625-.0140625-1.2390625.00625-.0171875.0234375-.01875.0890625-.0078125.0453125.009375.0828125.0171875.084375.01875zm-3.6140625.5234375c.009375.0140625.0828125.875.1734375 2.0015625.0296875.3828125.059375.7328125.0640625.7765625.0078125.0796875.00625.0828125-.04375.1140625-.028125.0171875-.05625.03125-.0625.03125-.0046875 0-.0140625-.040625-.01875-.090625C5.425 5.45625 5.340625 4.475 5.28125 3.765625c-.034375-.4171875-.065625-.790625-.0703125-.83125-.0078125-.06875-.00625-.075.034375-.096875.05-.0265625.078125-.03125.0890625-.0109375zm4.3015625.3140625c.04375.015625.0484375.0234375.0578125.1125.015625.15625.0109375.903125-.00625.903125-.0453125 0-.1390625-.053125-.146875-.0828125-.0046875-.01875-.009375-.240625-.009375-.4921875 0-.5078125-.00625-.478125.1046875-.440625zM6.75 3.2140625c0 .0421875.0109375.275.0234375.5203125.0125.2453125.0265625.55625.0328125.690625.0109375.271875.0140625.2625-.090625.26875-.0515625.0015625-.0515625.0015625-.0546875-.0765625C6.6578125 4.5734375 6.65 4.4375 6.640625 4.3125c-.0078125-.125-.0265625-.3953125-.0390625-.6015625S6.5734375 3.3 6.56875 3.25625c-.009375-.078125-.0078125-.08125.034375-.096875.025-.009375.06875-.0171875.096875-.0171875.05-.0015625.05-.0015625.05.071875zm4.334375.2140625L11.1375 3.45l.0109375.209375c.0046875.1140625.0078125.3609375.0046875.546875l-.0046875.340625-.065625-.0328125-.065625-.03125-.0046875-.51875c-.003125-.2859375-.0015625-.528125.0015625-.5390625.00625-.0234375.00625-.0234375.0703125.003125zm-2.853125.2046875c.009375.009375.03125.7671875.0328125 1.1515625l.0015625.23125-.0734375-.0109375C8.15 5 8.115625 4.9953125 8.1140625 4.99375 8.109375 4.990625 8.0625 3.8328125 8.0625 3.7203125v-.115625l.0796875.009375c.0453125.00625.084375.0140625.0890625.01875zm3.5984375.1109375c.01875.021875.021875.3640625.0265625 2.2515625.0046875 2.1671875.0046875 2.2234375-.0234375 2.2234375-.0171875 0-.040625-.009375-.0546875-.0203125-.0234375-.0171875-.0265625-.20625-.034375-2.0578125C11.7375 5.01875 11.7296875 4 11.725 3.8765625l-.009375-.225.0453125.0328125c.0265625.01875.05625.0453125.06875.059375zm-1.4015625.3203125c.0078125.00625.015625.0953125.0171875.196875.0078125.3453125.009375 2.4625.0015625 2.46875-.003125.003125-.03125-.0046875-.0625-.0171875l-.05625-.0234375V4.03125l.04375.009375c.0234375.00625.0484375.015625.05625.0234375zm-4.3125.0875c.0046875.0421875.0125.1375.0171875.215625.0046875.0765625.015625.2515625.025.3875.01875.275.015625.2921875-.0734375.2921875-.046875 0-.053125-.0046875-.059375-.0515625-.015625-.0921875-.0703125-.8609375-.0625-.8734375.0078125-.0109375.0890625-.0390625.1265625-.0421875.009375-.0015625.021875.03125.0265625.071875zM3.53125 4.55c.0171875.165625.0515625.5125.0765625.7703125.0265625.2578125.0484375.4765625.0484375.4859375 0 .01875-.1203125.078125-.1328125.065625C3.515625 5.8640625 3.359375 4.48125 3.359375 4.41875c0-.0375.1203125-.1953125.1359375-.178125C3.5 4.24375 3.515625 4.3828125 3.53125 4.55zm6.1265625.1640625l.0453125.0265625.0015625.3375c.0015625.184375.0046875.390625.0046875.4578125.003125.140625-.0140625.1640625-.0984375.134375L9.5625 5.653125V5.51875c0-.075-.0046875-.2921875-.0109375-.484375l-.009375-.346875h.0359375c.01875 0 .0546875.0125.0796875.0265625zm-5.440625.60625c.028125.3.0734375.80625.103125 1.125l.053125.578125L4.3125 7.084375l-.059375.0609375-.0109375-.1234375c-.00625-.06875-.0375-.3875-.0703125-.709375-.0328125-.321875-.0796875-.7890625-.103125-1.0375l-.04375-.45.0609375-.05625c.0546875-.0515625.0609375-.053125.071875-.025.00625.015625.0328125.275.059375.5765625zM3.046875 5.509375c.034375.3078125.125 1.1265625.203125 1.81875.078125.6921875.1515625 1.359375.165625 1.484375.0125.125.034375.3140625.046875.421875.021875.1828125.021875.1953125-.003125.2140625-.0375.028125-.053125.025-.053125-.0078125 0-.0140625-.0140625-.1328125-.03125-.2609375-.028125-.2140625-.075-.5765625-.1796875-1.390625-.021875-.1640625-.0640625-.490625-.09375-.7265625C3.0703125 6.8265625 3.025 6.475 3 6.28125c-.025-.19375-.0671875-.525-.09375-.7390625-.028125-.2125-.0453125-.4015625-.040625-.421875.0109375-.0421875.103125-.1890625.1125-.1796875.003125.0046875.034375.259375.06875.56875zm-.478125.6734375c.0234375.1875.0671875.5296875.096875.7625.0296875.23125.0671875.5203125.084375.640625l.0296875.21875-.0328125.028125c-.01875.015625-.0375.021875-.04375.015625-.00625-.00625-.01875-.06875-.028125-.1375-.009375-.06875-.0671875-.4703125-.1296875-.890625l-.1109375-.765625.0359375-.10625c.01875-.0578125.0390625-.1046875.04375-.1046875.00625 0 .0296875.153125.0546875.3390625zm8.578125-.2046875c.021875.021875.025.11875.025.8359375V7.625h-.04375c-.0953125 0-.09375.0234375-.1-.8640625l-.0046875-.8078125h.05c.0265625 0 .0609375.0109375.0734375.025zm-3.4203125.2796875c.353125.053125.6609375.1515625.965625.3078125.196875.1015625.290625.171875.509375.38125.325.3109375.525.5828125.7125.9671875.2734375.559375.3796875 1.0546875.5140625 2.3828125.0609375.5953125.140625 1.675.1578125 2.1171875.0046875.128125.015625.3390625.025.46875.0171875.275.0375.2375-.2046875.3546875-.3359375.1625-.659375.275-1.0859375.3796875-.521875.128125-.859375.16875-1.375.1703125l-.375.0015625.003125-.1796875c0-.0984375.009375-.328125.01875-.5078125.046875-.8703125.0375-1.96875-.0234375-2.578125-.034375-.35-.1015625-.775-.1390625-.86875-.0078125-.0203125.028125-.0375.1828125-.090625.2828125-.0984375.528125-.221875.565625-.2828125C8.2453125 9.165625 8.125 9 7.971875 9c-.0265625 0-.10625.028125-.1796875.0609375-.35.1609375-1.0515625.35-1.45625.3921875-.2796875.0296875-.7140625.0125-1.015625-.0421875C5.15625 9.38125 4.8625 9.2703125 4.6171875 9.14375c-.2828125-.146875-.45625-.3421875-.5078125-.5734375-.028125-.125-.0203125-.375.015625-.515625C4.1640625 7.9 4.2734375 7.675 4.3734375 7.54375 4.81875 6.9578125 5.7375 6.45 6.6796875 6.271875c.3-.05625.725-.0625 1.046875-.0140625zm4.8203125.0484375c.05625.0234375.0625.0296875.0625.0828125.003125.4265625-.00625 1.4015625-.0140625 1.4421875-.0015625.0140625-.0828125.015625-.1171875.003125-.021875-.0078125-.025-.0921875-.025-.78125 0-.49375.00625-.771875.015625-.771875.0078125 0 .04375.0109375.078125.025zm.6828125.8578125l.05625.0234375L13.275 8.48125c-.0125 1.6484375-.0140625 1.696875-.0734375 1.8390625-.096875.2328125-.0921875.2796875-.0828125-.7421875.003125-.5109375.0109375-1.028125.0140625-1.1484375.003125-.1203125.00625-.459375.0078125-.7546875 0-.35625.0046875-.534375.015625-.534375.009375 0 .0421875.0109375.0734375.0234375zm-9.396875.3890625c.009375.1265625.00625.1390625-.0390625.2390625l-.05.10625-.01875-.15625c-.0296875-.25-.0296875-.2609375.0296875-.2984375.0265625-.01875.0546875-.03125.059375-.028125.0046875.003125.0140625.065625.01875.1375zm-.965625.9421875c.0140625.128125.1234375.978125.1796875 1.3953125.084375.6453125.090625.7375.053125.6984375-.0046875-.0046875-.040625-.221875-.078125-.4828125C2.778125 8.421875 2.7796875 8.4328125 2.8 8.4203125c.0421875-.028125.05625-.0125.0671875.075zm1.125.715625c.009375.0390625.0546875.4625.0546875.5140625 0 .04375-.05625.084375-.08125.059375-.0078125-.0078125-.028125-.140625-.04375-.29375-.0171875-.1546875-.034375-.315625-.0390625-.3578125l-.009375-.078125.0546875.0625c.03125.034375.059375.0765625.0640625.09375zM5.253125 9.8c.0171875.015625.028125.078125.0421875.246875.0234375.3046875.0265625.28125-.0375.28125-.065625 0-.0640625.0046875-.0859375-.2703125C5.15 9.778125 5.15 9.78125 5.1921875 9.78125c.0203125 0 .046875.009375.0609375.01875zm1.2375.0234375c.003125.015625.0109375.109375.0171875.2078125.0046875.0984375.01875.3203125.03125.4921875.04375.63125.0453125.7109375.01875.7109375-.0296875 0-.0328125-.0234375-.0671875-.46875-.0125-.184375-.0359375-.475-.0515625-.6453125-.0140625-.1703125-.0234375-.3125-.01875-.315625.0171875-.01875.0625-.0046875.0703125.01875zm-2.9375.3c.009375.0140625.06875.5140625.1421875 1.196875.021875.20625.04375.4046875.0484375.4421875l.0078125.0671875-.0390625-.025c-.0296875-.0203125-.040625-.040625-.040625-.0765625 0-.0984375-.0671875-.746875-.11875-1.14375-.0296875-.225-.053125-.4234375-.053125-.4421875 0-.0328125.0375-.0453125.053125-.01875zm9.0171875.653125l-.0109375.653125-.0390625.0578125c-.0890625.13125-.084375.15625-.0796875-.575l.003125-.6703125.0578125-.059375c.03125-.03125.0625-.0578125.06875-.0578125.0046875 0 .0046875.29375 0 .6515625zM11.125 11.8125c.0078125.9078125.00625.978125-.01875 1.00625-.015625.0171875-.0296875.028125-.034375.0234375-.0109375-.0125-.0265625-1.9921875-.0140625-2.003125.00625-.00625.021875-.009375.0359375-.0078125.0203125.0046875.025.115625.03125.98125zm-5.103125-.621875c.0109375.096875.05.5609375.065625.7796875.009375.146875.009375.1515625-.025.1625-.01875.00625-.040625.0046875-.046875-.003125-.0109375-.0109375-.0453125-.3578125-.0875-.8921875l-.0109375-.128125h.0484375c.0453125 0 .0484375.003125.05625.08125zM4.79375 11.7375c.0109375.0109375.01875.05.01875.0890625 0 .040625.01875.2515625.0390625.4703125.059375.5984375.0640625.6796875.0375.6640625-.040625-.0234375-.0765625-.059375-.06875-.06875.003125-.00625-.003125-.084375-.015625-.1734375-.0109375-.090625-.025-.2375-.03125-.328125-.00625-.090625-.0203125-.25625-.0328125-.3671875-.0296875-.2734375-.028125-.3046875.00625-.3046875.015625 0 .0359375.0078125.046875.01875zm.7390625 1.0515625c.0046875.034375.0140625.1625.0203125.284375.0109375.234375.00625.2515625-.0578125.203125-.01875-.0140625-.03125-.0734375-.05-.2515625-.0328125-.321875-.034375-.309375.0265625-.303125.0453125.0046875.0515625.0109375.0609375.0671875z"/><path fill="#fff" fill-rule="nonzero" d="M4.975 7.00625c-.1625.0703125-.175.290625-.021875.36875.1109375.05625.2234375.0296875.28125-.0671875.109375-.178125-.06875-.384375-.259375-.3015625zm1.059375.15c-.15.0921875-.15.3140625 0 .40625.1484375.0890625.340625-.028125.340625-.20625 0-.171875-.196875-.2875-.340625-.2z"/></svg>