<svg xmlns="http://www.w3.org/2000/svg" fill-rule="evenodd" stroke-linecap="round" stroke-linejoin="round" stroke-miterlimit="1.5" clip-rule="evenodd" viewBox="0 0 16 16"><ellipse cx="2.696" cy="2.812" fill="none" stroke="#000" stroke-width=".01" rx=".408" ry=".33" transform="matrix(15.5576 0 0 19.2335 -33.9394 -46.0782)"/><path d="M5.533 12.789c.004.034.014.163.02.284.011.235.006.252-.058.204-.018-.014-.031-.074-.05-.252-.033-.322-.034-.309.027-.303.045.005.051.011.061.067zm-.739-1.051c.011.01.018.05.018.089 0 .04.019.251.04.47.059.598.064.68.037.664-.041-.023-.077-.059-.069-.069.003-.006-.003-.084-.015-.173-.011-.091-.025-.238-.032-.328-.006-.091-.02-.257-.032-.368-.03-.273-.029-.304.006-.304.015 0 .036.008.047.019zm6.331.075c.008.907.006.978-.019 1.006-.015.017-.029.028-.034.023-.011-.012-.027-1.992-.014-2.003.006-.006.022-.009.036-.008.02.005.025.116.031.982zm-5.103-.622c.011.097.05.561.065.779.01.147.01.152-.025.163-.018.006-.04.004-.046-.003-.011-.011-.046-.358-.088-.893l-.011-.128h.049c.045 0 .048.003.056.082zm-2.469-1.068c.01.014.069.514.142 1.197.022.207.044.405.049.442l.008.068-.039-.025c-.03-.021-.041-.041-.041-.077 0-.098-.067-.747-.119-1.144-.03-.225-.053-.423-.053-.442 0-.033.037-.045.053-.019zm9.017.654l-.011.653-.039.057c-.089.132-.084.157-.079-.574l.003-.671.058-.059c.031-.031.062-.058.068-.058.005 0 .005.294 0 .652zm-6.079-.954c.003.016.011.11.017.208.005.099.019.321.031.492.044.632.045.711.019.711-.03 0-.033-.023-.067-.468-.013-.185-.036-.475-.052-.646-.014-.17-.023-.312-.019-.315.018-.019.063-.005.071.018zM2.867 8.495c.014.128.124.978.18 1.396.084.645.091.737.053.698-.005-.005-.041-.222-.078-.483C2.778 8.422 2.78 8.433 2.8 8.42c.042-.028.056-.012.067.075zM13.23 7.164l.056.024-.011 1.293c-.012 1.649-.014 1.697-.073 1.839-.097.233-.093.28-.083-.742.003-.511.011-1.028.014-1.148.003-.121.006-.46.008-.755 0-.356.004-.534.015-.534.01 0 .042.011.074.023zM5.253 9.8c.017.016.028.078.042.247.024.305.027.281-.037.281-.066 0-.064.005-.086-.27-.022-.28-.022-.277.02-.277.021 0 .047.01.061.019zm-1.261-.589c.01.039.055.462.055.514 0 .044-.056.084-.081.059-.008-.007-.028-.14-.044-.293-.017-.155-.034-.316-.039-.358l-.01-.078.055.062c.031.035.06.077.064.094zm-.945-3.702c.034.308.125 1.127.203 1.819.078.692.152 1.36.166 1.485.012.125.034.314.047.421.021.183.021.196-.004.214-.037.029-.053.025-.053-.007 0-.014-.014-.133-.031-.261-.028-.214-.075-.577-.18-1.391-.022-.164-.064-.491-.093-.726-.032-.236-.077-.588-.102-.782-.025-.193-.067-.525-.094-.739-.028-.212-.045-.401-.04-.422.011-.042.103-.189.112-.179.003.004.034.259.069.568zm8.783-1.765c.018.022.022.364.026 2.251.005 2.167.005 2.224-.023 2.224-.017 0-.041-.01-.055-.021-.023-.017-.026-.206-.034-2.057-.007-1.122-.014-2.141-.019-2.264l-.009-.225.045.032c.026.019.056.046.069.06zM3.833 7.553c.009.127.006.139-.039.239l-.05.106-.019-.156c-.03-.25-.03-.261.03-.298.026-.019.054-.032.059-.028.005.003.014.065.019.137zm-1.264-1.37c.023.187.067.53.097.762.029.232.067.521.084.641l.03.219-.033.028c-.019.015-.038.022-.044.015-.006-.006-.019-.068-.028-.137-.009-.069-.067-.47-.13-.891l-.111-.765.036-.107c.019-.057.039-.104.044-.104.006 0 .03.153.055.339zm9.978.123c.056.024.062.03.062.083.004.427-.006 1.402-.014 1.442-.001.014-.082.016-.117.003-.022-.007-.025-.092-.025-.781 0-.494.006-.772.016-.772.008 0 .043.011.078.025zm-1.419 1.319c-.095 0-.094.023-.1-.864l-.005-.808h.05c.027 0 .061.011.074.025.022.022.025.119.025.836v.811h-.044zM4.217 5.32c.028.3.074.807.103 1.125l.053.578-.06.061-.06.061-.011-.123c-.006-.069-.037-.388-.07-.709-.033-.322-.08-.79-.103-1.038l-.044-.45.061-.056c.055-.052.061-.053.072-.025.006.015.033.275.059.576zm6.211-1.256c.008.007.016.096.017.197.008.345.01 2.462.002 2.469-.003.003-.031-.005-.063-.018l-.056-.023V4.031l.044.01c.023.006.048.015.056.023zM7.453 2.341c0 .182.013.579.03.956.009.184.02.448.025.586.017.487.069 1.767.076 1.881l.008.114-.07-.008c-.039-.003-.075-.012-.081-.017-.005-.006-.016-.114-.022-.24-.028-.557-.121-2.715-.13-3.03l-.009-.347.043-.006c.024-.003.063-.008.088-.01l.042-.001v.122zM3.531 4.55c.017.166.052.513.077.77.026.258.048.477.048.486 0 .019-.12.078-.133.066-.007-.008-.164-1.391-.164-1.453 0-.038.121-.196.136-.178l.036.309zm1.803-1.723c.01.014.083.875.174 2.001.03.383.059.733.064.777.008.079.006.083-.044.114-.028.017-.056.031-.062.031-.005 0-.014-.041-.019-.091-.022-.203-.106-1.184-.166-1.893-.034-.418-.065-.791-.07-.832-.008-.068-.006-.075.034-.096l.089-.011zm4.324 1.887l.045.027.002.337c.001.185.004.391.004.458.004.141-.014.164-.098.134l-.048-.017v-.134c0-.075-.005-.292-.011-.485l-.01-.346h.036c.019 0 .055.012.08.026zm-3.542-.562c.004.042.012.137.017.215.004.077.015.252.025.388.019.275.015.292-.074.292-.047 0-.053-.005-.059-.052-.016-.092-.07-.861-.063-.873.008-.011.09-.039.127-.042.009-.002.022.031.027.072zm2.115-.519c.01.009.032.767.033 1.151l.002.232-.074-.011c-.042-.005-.076-.01-.078-.011-.005-.003-.051-1.161-.051-1.274v-.115l.079.009c.045.006.084.014.089.019zM6.75 3.214c0 .042.011.275.023.52.013.246.027.557.033.691.011.272.014.263-.09.269-.052.001-.052.001-.055-.077-.003-.044-.011-.179-.02-.304-.008-.125-.027-.396-.039-.602-.013-.206-.029-.411-.033-.455-.01-.078-.008-.081.034-.097.025-.009.069-.017.097-.017.05-.001.05-.001.05.072zm2.198-.911c.002.002.007.474.011 1.049.007.576.014 1.093.019 1.15.005.057.003.107-.005.111-.006.004-.045.004-.084 0l-.072-.007-.011-.454c-.006-.252-.014-.53-.017-.621-.012-.276-.023-1.215-.014-1.239.006-.017.023-.019.089-.008.045.01.082.017.084.019zm2.136 1.125l.053.022.011.209c.005.114.008.361.005.547l-.005.341-.065-.033-.066-.031-.005-.519c-.003-.286-.001-.528.002-.539.006-.023.006-.023.07.003zm-1.448-.287c.044.015.048.023.058.112.015.156.011.903-.006.903-.046 0-.14-.053-.147-.083-.005-.018-.01-.24-.01-.492 0-.507-.006-.478.105-.44zM7.727 6.258c.353.053.661.151.965.308.197.101.291.172.51.381.325.311.525.583.712.967.274.559.38 1.055.514 2.383.061.595.141 1.675.158 2.117.005.128.016.339.025.469.017.275.037.237-.205.355-.336.162-.659.275-1.086.379-.522.128-.859.169-1.375.171l-.375.001.003-.18c0-.098.01-.328.019-.507.047-.871.038-1.969-.023-2.579-.035-.35-.102-.775-.139-.868-.008-.021.028-.038.183-.091.282-.098.528-.222.565-.283C8.245 9.166 8.125 9 7.972 9c-.027 0-.106.028-.18.061-.35.161-1.051.35-1.456.392-.28.03-.714.013-1.016-.042-.164-.03-.457-.141-.703-.267-.283-.147-.456-.342-.508-.574-.028-.125-.02-.375.016-.515.039-.155.148-.38.248-.511.446-.586 1.365-1.094 2.307-1.272.3-.056.725-.063 1.047-.014zm-1.693.898c-.15.092-.15.314 0 .407.149.089.341-.029.341-.207 0-.172-.197-.287-.341-.2zm-1.059-.15c-.162.071-.175.291-.022.369.111.056.224.03.281-.067.11-.178-.068-.385-.259-.302z"/></svg>