<?xml version="1.0" encoding="UTF-8" standalone="no"?>
<!DOCTYPE svg PUBLIC "-//W3C//DTD SVG 1.1//EN" "http://www.w3.org/Graphics/SVG/1.1/DTD/svg11.dtd">
<svg width="100%" height="100%" viewBox="0 0 16 16" version="1.1" xmlns="http://www.w3.org/2000/svg" xmlns:xlink="http://www.w3.org/1999/xlink" xml:space="preserve" xmlns:serif="http://www.serif.com/" style="fill-rule:evenodd;clip-rule:evenodd;stroke-linejoin:round;stroke-miterlimit:2;">
    <g transform="matrix(0.015625,0,0,0.015625,0,0)">
        <path d="M472,106.6C470.1,106.8 464,107.5 458.5,108C380.3,116.2 303.3,149.3 240.5,201.9C228.9,211.5 202.5,237.9 192.9,249.5C140.9,311.6 110.5,381.3 99.3,463.8C96.8,482.1 96.8,543.9 99.3,562.2C110.5,644.7 140.9,714.4 192.9,776.5C202.5,788.1 228.9,814.5 240.5,824.1C302.6,876.1 372.3,906.5 454.8,917.7C473.1,920.2 534.9,920.2 553.2,917.7C635.7,906.5 705.4,876.1 767.5,824.1C779.1,814.5 805.5,788.1 815.1,776.5C867.1,714.4 897.5,644.7 908.7,562.2C911.2,543.9 911.2,482.1 908.7,463.8C897.5,381.3 867.1,311.6 815.1,249.5C805.5,237.9 779.1,211.5 767.5,201.9C705.6,150.1 635.2,119.3 553.8,108.4C545,107.2 532.2,106.7 508.5,106.5C490.4,106.3 473.9,106.4 472,106.6ZM477,149.8C477,161.5 477.8,186.9 478.9,211C479.5,222.8 480.2,239.7 480.5,248.5C481.6,279.7 484.9,361.6 485.4,368.9L485.9,376.2L481.4,375.7C478.9,375.5 476.6,374.9 476.2,374.6C475.9,374.2 475.2,367.3 474.8,359.2C473,323.6 467.1,185.5 466.5,165.3L465.9,143.1L468.7,142.7C470.2,142.5 472.7,142.2 474.3,142.1L477,142L477,149.8ZM572.7,147.4C572.8,147.5 573.1,177.7 573.4,214.5C573.8,251.4 574.3,284.5 574.6,288.1C574.9,291.8 574.8,295 574.3,295.2C573.9,295.5 571.4,295.5 568.9,295.2L564.3,294.8L563.6,265.7C563.2,249.6 562.7,231.8 562.5,226C561.7,208.3 561,148.2 561.6,146.7C562,145.6 563.1,145.5 567.3,146.2C570.2,146.8 572.6,147.3 572.7,147.4ZM341.4,180.9C342,181.8 346.7,236.9 352.5,309C354.4,333.5 356.3,355.9 356.6,358.7C357.1,363.8 357,364 353.8,366C352,367.1 350.2,368 349.8,368C349.5,368 348.9,365.4 348.6,362.2C347.2,349.2 341.8,286.4 338,241C335.8,214.3 333.8,190.4 333.5,187.8C333,183.4 333.1,183 335.7,181.6C338.9,179.9 340.7,179.6 341.4,180.9ZM616.7,201C619.5,202 619.8,202.5 620.4,208.2C621.4,218.2 621.1,266 620,266C617.1,266 611.1,262.6 610.6,260.7C610.3,259.5 610,245.3 610,229.2C610,196.7 609.6,198.6 616.7,201ZM432,205.7C432,208.4 432.7,223.3 433.5,239C434.3,254.7 435.2,274.6 435.6,283.2C436.3,300.6 436.5,300 429.8,300.4C426.5,300.5 426.5,300.5 426.3,295.5C426.1,292.7 425.6,284 425,276C424.5,268 423.3,250.7 422.5,237.5C421.7,224.3 420.7,211.2 420.4,208.4C419.8,203.4 419.9,203.2 422.6,202.2C424.2,201.6 427,201.1 428.8,201.1C432,201 432,201 432,205.7ZM709.4,219.4L712.8,220.8L713.5,234.2C713.8,241.5 714,257.3 713.8,269.2L713.5,291L709.3,288.9L705.1,286.9L704.8,253.7C704.6,235.4 704.7,219.9 704.9,219.2C705.3,217.7 705.3,217.7 709.4,219.4ZM526.8,232.5C527.4,233.1 528.8,281.6 528.9,306.2L529,321L524.3,320.3C521.6,320 519.4,319.7 519.3,319.6C519,319.4 516,245.3 516,238.1L516,230.7L521.1,231.3C524,231.7 526.5,232.2 526.8,232.5ZM757.1,239.6C758.3,241 758.5,262.9 758.8,383.7C759.1,522.4 759.1,526 757.3,526C756.2,526 754.7,525.4 753.8,524.7C752.3,523.6 752.1,511.5 751.6,393C751.2,321.2 750.7,256 750.4,248.1L749.8,233.7L752.7,235.8C754.4,237 756.3,238.7 757.1,239.6ZM667.4,260.1C667.9,260.5 668.4,266.2 668.5,272.7C669,294.8 669.1,430.3 668.6,430.7C668.4,430.9 666.6,430.4 664.6,429.6L661,428.1L661,258L663.8,258.6C665.3,259 666.9,259.6 667.4,260.1ZM391.4,265.7C391.7,268.4 392.2,274.5 392.5,279.5C392.8,284.4 393.5,295.6 394.1,304.3C395.3,321.9 395.1,323 389.4,323C386.4,323 386,322.7 385.6,319.7C384.6,313.8 381.1,264.6 381.6,263.8C382.1,263.1 387.3,261.3 389.7,261.1C390.3,261 391.1,263.1 391.4,265.7ZM226,291.2C227.1,301.8 229.3,324 230.9,340.5C232.6,357 234,371 234,371.6C234,372.8 226.3,376.6 225.5,375.8C225,375.3 215,286.8 215,282.8C215,280.4 222.7,270.3 223.7,271.4C224,271.6 225,280.5 226,291.2ZM618.1,301.7L621,303.4L621.1,325C621.2,336.8 621.4,350 621.4,354.3C621.6,363.3 620.5,364.8 615.1,362.9L612,361.8L612,353.2C612,348.4 611.7,334.5 611.3,322.2L610.7,300L613,300C614.2,300 616.5,300.8 618.1,301.7ZM269.9,340.5C271.7,359.7 274.6,392.1 276.5,412.5L279.9,449.5L276,453.4L272.2,457.3L271.5,449.4C271.1,445 269.1,424.6 267,404C264.9,383.4 261.9,353.5 260.4,337.6L257.6,308.8L261.5,305.2C265,301.9 265.4,301.8 266.1,303.6C266.5,304.6 268.2,321.2 269.9,340.5ZM195,352.6C197.2,372.3 203,424.7 208,469C213,513.3 217.7,556 218.6,564C219.4,572 220.8,584.1 221.6,591C223,602.7 223,603.5 221.4,604.7C219,606.5 218,606.3 218,604.2C218,603.3 217.1,595.7 216,587.5C214.2,573.8 211.2,550.6 204.5,498.5C203.1,488 200.4,467.1 198.5,452C196.5,436.9 193.6,414.4 192,402C190.4,389.6 187.7,368.4 186,354.7C184.2,341.1 183.1,329 183.4,327.7C184.1,325 190,315.6 190.6,316.2C190.8,316.5 192.8,332.8 195,352.6ZM164.4,395.7C165.9,407.7 168.7,429.6 170.6,444.5C172.5,459.3 174.9,477.8 176,485.5L177.9,499.5L175.8,501.3C174.6,502.3 173.4,502.7 173,502.3C172.6,501.9 171.8,497.9 171.2,493.5C170.6,489.1 166.9,463.4 162.9,436.5L155.8,387.5L158.1,380.7C159.3,377 160.6,374 160.9,374C161.3,374 162.8,383.8 164.4,395.7ZM713.4,382.6C714.8,384 715,390.2 715,436.1L715,488L712.2,488C706.1,488 706.2,489.5 705.8,432.7L705.5,381L708.7,381C710.4,381 712.6,381.7 713.4,382.6ZM494.5,400.5C517.1,403.9 536.8,410.2 556.3,420.2C568.9,426.7 574.9,431.2 588.9,444.6C609.7,464.5 622.5,481.9 634.5,506.5C652,542.3 658.8,574 667.4,659C671.3,697.1 676.4,766.2 677.5,794.5C677.8,802.7 678.5,816.2 679.1,824.5C680.2,842.1 681.5,839.7 666,847.2C644.5,857.6 623.8,864.8 596.5,871.5C563.1,879.7 541.5,882.3 508.5,882.4L484.5,882.5L484.7,871C484.7,864.7 485.3,850 485.9,838.5C488.9,782.8 488.3,712.5 484.4,673.5C482.2,651.1 477.9,623.9 475.5,617.9C475,616.6 477.3,615.5 487.2,612.1C505.3,605.8 521,597.9 523.4,594C527.7,586.6 520,576 510.2,576C508.5,576 503.4,577.8 498.7,579.9C476.3,590.2 431.4,602.3 405.5,605C387.6,606.9 359.8,605.8 340.5,602.3C330,600.4 311.2,593.3 295.5,585.2C277.4,575.8 266.3,563.3 263,548.5C261.2,540.5 261.7,524.5 264,515.5C266.5,505.6 273.5,491.2 279.9,482.8C308.4,445.3 367.2,412.8 427.5,401.4C446.7,397.8 473.9,397.4 494.5,400.5ZM803,403.6C806.6,405.1 807,405.5 807,408.9C807.2,436.2 806.6,498.6 806.1,501.2C806,502.1 800.8,502.2 798.6,501.4C797.2,500.9 797,495.5 797,451.4C797,419.8 797.4,402 798,402C798.5,402 800.8,402.7 803,403.6ZM846.7,458.5L850.3,460L849.6,542.8C848.8,648.3 848.7,651.4 844.9,660.5C838.7,675.4 839,678.4 839.6,613C839.8,580.3 840.3,547.2 840.5,539.5C840.7,531.8 840.9,510.1 841,491.2C841,468.4 841.3,457 842,457C842.6,457 844.7,457.7 846.7,458.5ZM245.3,483.4C245.9,491.5 245.7,492.3 242.8,498.7L239.6,505.5L238.4,495.5C236.5,479.5 236.5,478.8 240.3,476.4C242,475.2 243.8,474.4 244.1,474.6C244.4,474.8 245,478.8 245.3,483.4ZM183.5,543.7C184.4,551.9 191.4,606.3 195,633C200.4,674.3 200.8,680.2 198.4,677.7C198.1,677.4 195.8,663.5 193.4,646.8C177.8,539 177.9,539.7 179.2,538.9C181.9,537.1 182.8,538.1 183.5,543.7ZM255.5,589.5C256.1,592 259,619.1 259,622.4C259,625.2 255.4,627.8 253.8,626.2C253.3,625.7 252,617.2 251,607.4C249.9,597.5 248.8,587.2 248.5,584.5L247.9,579.5L251.4,583.5C253.4,585.7 255.2,588.4 255.5,589.5ZM336.2,627.2C337.3,628.2 338,632.2 338.9,643C340.4,662.5 340.6,661 336.5,661C332.3,661 332.4,661.3 331,643.7C329.6,625.8 329.6,626 332.3,626C333.6,626 335.3,626.6 336.2,627.2ZM415.4,628.7C415.6,629.7 416.1,635.7 416.5,642C416.8,648.3 417.7,662.5 418.5,673.5C421.3,713.9 421.4,719 419.7,719C417.8,719 417.6,717.5 415.4,689C414.6,677.2 413.1,658.6 412.1,647.7C411.2,636.8 410.6,627.7 410.9,627.5C412,626.3 414.9,627.2 415.4,628.7ZM227.4,647.9C228,648.8 231.8,680.8 236.5,724.5C237.9,737.7 239.3,750.4 239.6,752.8L240.1,757.1L237.6,755.5C235.7,754.2 235,752.9 235,750.6C235,744.3 230.7,702.8 227.4,677.4C225.5,663 224,650.3 224,649.1C224,647 226.4,646.2 227.4,647.9ZM804.5,689.7L803.8,731.5L801.3,735.2C795.6,743.6 795.9,745.2 796.2,698.4L796.4,655.5L800.1,651.7C802.1,649.7 804.1,648 804.5,648C804.8,648 804.8,666.8 804.5,689.7ZM712,756C712.5,814.1 712.4,818.6 710.8,820.4C709.8,821.5 708.9,822.2 708.6,821.9C707.9,821.1 706.9,694.4 707.7,693.7C708.1,693.3 709.1,693.1 710,693.2C711.3,693.5 711.6,700.6 712,756ZM385.4,716.2C386.1,722.4 388.6,752.1 389.6,766.1C390.2,775.5 390.2,775.8 388,776.5C386.8,776.9 385.4,776.8 385,776.3C384.3,775.6 382.1,753.4 379.4,719.2L378.7,711L381.8,711C384.7,711 384.9,711.2 385.4,716.2ZM306.8,751.2C307.5,751.9 308,754.4 308,756.9C308,759.5 309.2,773 310.5,787C314.3,825.3 314.6,830.5 312.9,829.5C310.3,828 308,825.7 308.5,825.1C308.7,824.7 308.3,819.7 307.5,814C306.8,808.2 305.9,798.8 305.5,793C305.1,787.2 304.2,776.6 303.4,769.5C301.5,752 301.6,750 303.8,750C304.8,750 306.1,750.5 306.8,751.2ZM354.1,818.5C354.4,820.7 355,828.9 355.4,836.7C356.1,851.7 355.8,852.8 351.7,849.7C350.5,848.8 349.7,845 348.5,833.6C346.4,813 346.3,813.8 350.2,814.2C353.1,814.5 353.5,814.9 354.1,818.5Z" style="fill-rule:nonzero;"/>
    </g>
    <g transform="matrix(0.015625,0,0,0.015625,0,0)">
        <path d="M318.4,448.4C308,452.9 307.2,467 317,472C324.1,475.6 331.3,473.9 335,467.7C342,456.3 330.6,443.1 318.4,448.4ZM386.2,458C376.6,463.9 376.6,478.1 386.2,484C395.7,489.7 408,482.2 408,470.8C408,459.8 395.4,452.4 386.2,458Z" style="fill-rule:nonzero;"/>
    </g>
</svg>
