<svg xmlns="http://www.w3.org/2000/svg" fill-rule="evenodd" stroke-linejoin="round" stroke-miterlimit="2" clip-rule="evenodd" viewBox="0 0 16 16"><path fill-rule="nonzero" d="M7.29933698.20933344c.42466688-.27800014.97666716-.27800014 1.40133404 0l6.2220031 4.0786687c.36066686.23600012.57733363.63800032.57733363 1.06933387V10.642672c0 .43133355-.21733344.83333375-.57733362 1.06933387l-6.22200311 4.0786687c-.42466688.27800014-.97666716.27800014-1.40133404 0l-6.2220031-4.0786687c-.36000019-.23600012-.57733363-.63866699-.57733363-1.06933387V5.357336c0-.43133355.21733344-.83333375.57733362-1.06933387L7.29933698.20933344zM8.50000425 5.0000025v.50000025h-4.000002c-.27400014 0-.50000025.22600011-.50000025.50000025v2.000001h-.3333335c-.09133338 0-.16666675.07533337-.16666675.16666675v1.6666675c0 .09200005.0746667.16666675.16666675.16666675h.3333335v1.0000005c0 .2766668.22400011.50000025.50000025.50000025h7.0000035c.27400014 0 .50000025-.22600011.50000025-.50000025V10.000005h.3333335c.09133338 0 .16666675-.07533337.16666675-.16666675v-1.6666675c0-.09133338-.07533337-.16666675-.16666675-.16666675h-.3333335V6.000003c0-.27400014-.22600011-.50000025-.50000025-.50000025H9.0000045V3.6666685c0-.09133338-.07533337-.16666675-.16666675-.16666675H7.6666705c-.09133338 0-.16666675.07533337-.16666675.16666675v1.16666725c0 .09200005.0746667.16666675.16666675.16666675h.83333375zm2.19066776 3.39266836L9.6426715 9.4406714c-.07800004.07800004-.20733344.07800004-.28533348 0l-.63133365-.63133365c-.07800004-.07800004-.07800004-.20733344 0-.28533348l.21466678-.21466677c.07800004-.07800004.20733343-.07800004.28533347 0l.27333347.27400013.69133368-.690667c.07800004-.07800005.20733344-.07800005.28533348 0l.21466677.21466677c.07800004.07800004.07800004.20733343 0 .28533347zM6.3093365 9.44000472v.00066667c-.07800004.07800004-.20733344.07800004-.28533348 0l-.63200031-.63133365c-.03800002-.03800002-.05933337-.08933338-.05933337-.14266674 0-.05333336.02133335-.10466672.05933337-.14266674l.21533344-.21466677c.07800004-.07800004.20666677-.07800004.2846668 0l.27466681.27400013.69066701-.69133367c.07800004-.07800004.20666677-.07800004.28466681 0l.21533344.21466677c.07800004.07800004.07800004.20733344 0 .28533348L6.3093365 9.44000472z"/></svg>