<?xml version="1.0" encoding="UTF-8" standalone="no"?>
<!DOCTYPE svg PUBLIC "-//W3C//DTD SVG 1.1//EN" "http://www.w3.org/Graphics/SVG/1.1/DTD/svg11.dtd">
<svg width="100%" height="100%" viewBox="0 0 16 16" version="1.1" xmlns="http://www.w3.org/2000/svg" xmlns:xlink="http://www.w3.org/1999/xlink" xml:space="preserve" xmlns:serif="http://www.serif.com/" style="fill-rule:evenodd;clip-rule:evenodd;stroke-linejoin:round;stroke-miterlimit:1.41421;">
    <g transform="matrix(0.533333,0,0,0.533333,0.8,0)">
        <path d="M3,0C1.13,0 0,1.11 0,2.903L0,27.097C0,28.883 1.13,30 3,30L24,30C25.863,30 27,28.89 27,27.097L27,2.903C26.994,1.11 25.863,0 24,0L3,0ZM24.042,2C24.55,2.006 25,2.448 25,2.929L25,27.07C25,27.557 24.55,27.999 24.042,27.999L2.958,27.999C2.45,28 2,27.558 2,27.071L2,2.93C2,2.442 2.45,2 2.958,2L24.042,2ZM20,25L17.219,25L17.219,16.494C17.219,15.72 16.982,15.446 16.751,15.286C15.355,14.327 11.337,15.244 8.917,16.202L7,17.012L7.006,5L9.822,5L9.822,12.917C10.442,12.727 11.07,12.567 11.704,12.435C14.692,11.792 16.888,11.965 18.32,12.94C19.107,13.476 20,14.53 20,16.494L20,25ZM14,10L17.293,10C18.485,8.507 19.401,6.814 20,5L16.713,5C16.223,6.188 15.328,8.188 14,10ZM7,25L7,18L10,21.5L7,25Z"/>
    </g>
</svg>
