<svg xmlns="http://www.w3.org/2000/svg" fill-rule="evenodd" stroke-linejoin="round" stroke-miterlimit="2" clip-rule="evenodd" viewBox="0 0 16 16"><path fill-rule="nonzero" d="M8.00533734 3.24400162c-1.94266764 0-3.58466846.4526669-4.66333567 1.40666737-.03333335-.0586667-.0566667-.10866672-.09400005-.16866675-.11333339-.18200009-.21866677-.38866686-.55200027-.59333363-.20533344-.13066673-.43533355-.21866678-.67600034-.25800013-.10400005-.012-.20933344-.012-.31333349-.00066667l.06600003-.00866667c-.60666697 0-.96133381.36400019-1.1920006.67733368-.22933344.31333349-.37733352.66600033-.47333356 1.05133386-.1900001.77000038-.19266677 1.76733421.54000027 2.51133458.38333352.3920002.83400041.57533363 1.24200062.68466701.0786667.02133335.14866674.02666668.22400011.04200002.26600013 1.26133397 1.05333386 2.32800117 2.10533439 2.92066813v.00066667h.00133333c.61933364.34800017 1.20666727.50733359 1.64800082.67600034.61600031.23800012 1.2666673.50066691 2.02400102.56666695l.04000002.004h.10000005c.8706671 0 1.53066743-.35133351 2.10133438-.57000029.43666689-.16666675 1.02666718-.3213335 1.65133416-.67200033.28866681-.16266675.55600028-.35933352.79733373-.58666696.65733366-.61800031 1.11466723-1.41933405 1.31133399-2.30000115.55666695-.09066672 1.06933387-.36000018 1.46000073-.76666705.73200037-.7433337.7293337-1.74066754.5393336-2.51066793-.09600005-.38533352-.24400012-.7373337-.47333357-1.05133385-.23000011-.3133335-.58600029-.67733368-1.1920006-.67733368l.0666667.00866667c-.10466671-.01133333-.2100001-.01066667-.31466682.00133334-.23933345.03933335-.4686669.12666673-.67333367.2566668-.33266683.20466676-.43866688.41066687-.5513336.59200029-.0366667.05933336-.06000004.10866672-.09266672.16600008-1.07800054-.95066714-2.7173347-1.4020007-4.656669-1.4020007zm.01533334.9133338c2.37133452 0 4.00866867.71000035 4.70466902 1.98000098.4200002-.16200008.72866703-1.26000063 1.0746672-1.4726674.28000014-.17333342.44333356-.13000007.44333356-.13000007.63333365 0 1.2866673 1.8646676.4746669 2.68800135-.42933355.43800022-1.22000061.56133361-1.61466747.53000026-.03000002 1.2706673-.77000039 2.41733455-1.74933421 2.96666815-.49866692.28000014-1.03466719.42666688-1.53066743.61600031-.61400031.23466679-1.19066727.50866692-1.77466756.50866692h-.06133336c-.58133363-.05066669-1.16000058-.27133347-1.77466756-.50866692-.49600024-.1900001-1.03200051-.34000017-1.53066743-.6200003-.97333382-.54933362-1.71400086-1.69333419-1.74400087-2.96333482-.39133353.03333335-1.1920006-.08800005-1.62400081-.5293336-.81133374-.82333375-.15866675-2.68800135.4746669-2.68800135 0 0 .16400008-.04266668.44400022.13000007.34733351.2140001.65800033 1.32266733 1.08000054 1.47600074C4.00866867 4.8666691 5.6466695 4.1573354 8.02133734 4.1573354h-.00066666zm-2.5840013 1.5533341H5.4000027c-1.11666722 0-2.03533435.91866713-2.03533435 2.03466769 0 1.11666722.91866713 2.03533435 2.03533435 2.03533435h.03666669c1.10266721-.02000001 1.99866766-.93266714 1.99866766-2.03533435 0-1.10200055-.89600045-2.01466768-1.99866766-2.03466769zm5.16733592 0c-1.11666722 0-2.03533435.91866713-2.03533435 2.03466769 0 1.11666722.91866713 2.03533435 2.03533435 2.03533435 1.11666723 0 2.03533435-.91866713 2.03533435-2.03533435 0-1.11600056-.91866712-2.03466769-2.03533435-2.03466769zM5.7273362 6.85333676c.4866669.01333334.88000044.41733354.88000044.90400045 0 .48733358-.39333353.89133378-.88000044.90466712-.49600025 0-.90400045-.4080002-.90400045-.90400045 0-.07600004.01-.15200008.02866668-.22533345.05800003.14266674.1980001.23666679.35200017.23666679.20866677 0 .3800002-.17133342.3800002-.3800002v-.00066666c0-.20266677-.16200009-.37200018-.36466686-.38000019.15000008-.10200005.32666683-.15600008.50800026-.15533341zm4.5920023 0c.4866669.01333334.88000043.41733354.88000043.90400045 0 .48733358-.39333353.89133378-.88000044.90466712h-.00066666c-.49600025 0-.90400046-.4080002-.90400046-.90400045 0-.07600004.01-.15200008.02866668-.22533345.05800003.14266674.1980001.23600012.35200018.23600012.2080001 0 .3800002-.17133342.3800002-.38000019 0-.2020001-.16200009-.37066685-.3640002-.37933352.15000008-.10200005.32666684-.15600008.50800026-.15600008zM7.68000383 9.95333831c-.15933341.01333334-.25133346.09733338-.25133346.3173335 0 .14000006.09200005.24333345.25200013.24333345.05200002 0 .09466671-.04333336.09466671-.09533338 0-.04400003-.03000001-.08266671-.0726667-.09266672-.01466668-.00333333-.08666671-.02933334-.08666671-.0906667 0-.06200004 0-.08333338.12200006-.10000006.05200003-.008.07733337-.07000003.06133336-.12000006-.016-.05000002-.0626667-.0666667-.12000006-.06200003h.00066667zm.68200034 0c-.0566667-.004-.10400005.012-.12000006.06200003-.016.05000003.01.11200006.06200003.12000006.1213334.01666668.1213334.03800002.1213334.10000005 0 .06133337-.07133337.08733338-.08666671.09066671-.0426667.01-.0726667.0486667-.0726667.09266672 0 .05200002.04266668.09533338.0946667.09533338.16000009 0 .2526668-.10333339.2526668-.24333346 0-.2200001-.09266671-.30400015-.25133346-.31733349z"/></svg>