<svg xmlns="http://www.w3.org/2000/svg" fill-rule="evenodd" stroke-linejoin="round" stroke-miterlimit="2" clip-rule="evenodd" viewBox="0 0 16 16"><path fill-rule="nonzero" d="M2.28000114 0c-.1353334.00066667-.24600012.11133339-.24600012.24666679v13.01067317c.38466686-.9920005 1.03800052-2.41133454 2.09200104-4.3533355 3.8000019-6.98667017 4.29800215-7.69133719 6.27733647-7.69133719 1.04000052 0 2.08933438.46933357 2.76800139 1.30333399C12.21933944.97666716 10.54400527.02666668 8.73467103 0H2.28000114zm8.48000424 1.69600085c-.79333373.00666667-1.50466742.31066682-1.79866757.99866716-.64466699 1.50400076 1.08266721 3.1780016 1.83800092 3.04533486.96133382-.17000008-.17000008-2.37533452-.17000008-2.37533452 1.47000073 2.77066805 1.1313339 1.92266763-1.52666743 4.4666689-2.65800133 2.54400127-5.37200269 7.91533729-5.76800289 8.14067074-.01666667.01133334-.03466668.02066667-.05333336.02866668h10.42467188c.1353334-.00133334.24533346-.1133334.24533346-.2486668 0-.03800001-.00866667-.07600003-.02533335-.11000005l-2.7253347-5.39466936c-.05933336-.11600006-.01666667-.26000013.09600006-.3253335 1.65000082-.94466714 2.67133466-2.70733469 2.67000133-4.60866897 0-.95000047-.2486668-1.84066759-.68666701-2.61333464-.6180003-.63466698-1.62000081-1.01066717-2.5193346-1.0040005h-.00066666z"/></svg>