<svg xmlns="http://www.w3.org/2000/svg" fill-rule="evenodd" stroke-linejoin="round" stroke-miterlimit="2" clip-rule="evenodd" viewBox="0 0 16 16"><path fill-rule="nonzero" d="M15.79134123 7.8060039l-.66333367-.41066687c-.00533333-.0646667-.012-.12866673-.01866667-.19333343l.57000028-.5313336c.04533336-.04333335.07133337-.10333338.07133337-.16666675 0-.09466671-.0586667-.18000009-.1473334-.2140001l-.72866704-.2726668c-.018-.0626667-.03733335-.12600007-.05733336-.1880001l.4546669-.63133365c.02800001-.03866669.04333335-.08533338.04333335-.1333334 0-.11200006-.08200004-.20733344-.1920001-.22533345l-.76800038-.12466673c-.03000001-.05800003-.0606667-.11533339-.09266671-.17266675l.32266683-.70866702c.03333335-.07200004.026-.15600008-.01800001-.22133344-.04400003-.06533337-.11866673-.10400006-.1980001-.10133339l-.7800004.02733335c-.04000001-.0506667-.08133337-.10066672-.12333339-.1493334l.17933343-.75933372c.004-.01733334.006-.03466669.006-.05200003 0-.1253334-.10333339-.22866678-.22866678-.22866678-.01733334 0-.03466669.002-.05200003.006l-.75933371.17933343c-.04933336-.04133336-.09933338-.08266671-.15000008-.1233334l.02733335-.78000039v-.01066667c0-.12466673-.10200005-.22666678-.22666678-.22666678-.03333335 0-.06600003.00733334-.09600005.02133334l-.70866702.3233335c-.05733336-.03133335-.11466672-.0626667-.17266675-.09266671L11.1593389.8766671c-.01866667-.11000005-.11466672-.19066676-.22600011-.19066676-.04733336 0-.09400005.01466668-.13266673.04200002l-.63200032.4546669c-.06200003-.02000001-.1253334-.03866669-.1880001-.0566667l-.2726668-.72866703c-.03400001-.0886667-.11933339-.1473334-.2140001-.1473334-.06333337 0-.1233334.026-.16666675.07133336l-.5313336.57066696C8.7313377.8846671 8.66733767.8786671 8.60267097.87333377L8.1920041.2100001C8.15067074.14266674 8.0766707.10200005 7.998004.10200005s-.15266674.04066669-.1940001.10800005l-.41066687.66333367c-.0646667.00533334-.1293334.012-.19333343.01866668L6.66800333.32133349C6.62466998.27533347 6.56466995.2486668 6.50133658.2486668c-.09533338 0-.18066675.05933336-.2140001.14866674l-.2726668.72866703c-.06333337.01800001-.1253334.03733335-.1880001.0566667l-.63133365-.4546669C5.15666924.70066702 5.11000255.68600034 5.0626692.68600034c-.1113334 0-.20733344.08066671-.22600012.19066676l-.1253334.76866706c-.05800002.03000001-.11533338.0606667-.17266674.0926667l-.70866703-.32333349c-.03000001-.01333334-.06200003-.02066667-.0946667-.02066667-.1253334 0-.22800012.10266671-.22800012.22800011v.00866667l.02733334.7800004c-.05066669.04000001-.10066671.08133337-.15000007.12333339l-.75933371-.17933343c-.01733335-.004-.03466669-.006-.05200003-.006-.1253334 0-.22866678.10333339-.22866678.22866678 0 .01733334.002.03466669.006.05200003l.17866676.75933371c-.04133336.04933336-.08266671.09933338-.12266673.1493334l-.78000039-.02733334h-.00866667c-.1253334 0-.22800012.10266672-.22800012.22800012 0 .03266668.00733334.0646667.02066668.09466671l.3233335.70866702c-.03200002.05733336-.0626667.11466672-.09266672.17266675l-.76800038.12466673c-.11000006.01866668-.19066676.11466673-.19066676.22600012 0 .04733335.01466667.09400004.04200002.13266673l.4546669.63133365c-.02000002.0626667-.0386667.12466673-.05733337.1880001l-.72866703.2726668c-.08866671.03400001-.1473334.11933339-.1473334.2140001 0 .06333337.026.1233334.07133336.16666675l.57000029.5313336c-.00733334.0646667-.01333334.12866673-.01866668.19333343l-.66333366.41066687c-.06800004.04066669-.1093334.11466673-.1093334.1940001 0 .07933337.04133336.15333341.1093334.1940001l.66333366.41066687c.00533334.0646667.012.1293334.01866668.19333343l-.57000029.53200026c-.04600002.04333336-.0726667.10333339-.0726667.16666675 0 .09533339.05933336.18066676.14866674.21400011l.72866703.2726668c.01800001.06333337.03733335.12600007.05733336.1880001l-.4546669.63133365c-.02866667.03866668-.04333335.08600004-.04333335.13400006 0 .11200006.08200004.2080001.19266677.22466678l.76800038.12466673c.03000002.05800003.0606667.1153334.09266671.17266676l-.3233335.70866702c-.01333333.03000001-.02066667.06200003-.02066667.09466671 0 .1253334.10266672.22800011.22800012.22800011h.00866667l.77933372-.02733334c.04066669.05066669.08133337.10066671.1233334.15000007l-.17866676.76000038c-.004.01733334-.006.03466669-.006.05200003 0 .1253334.10266671.22800011.22800011.22800011.018 0 .03533335-.002.0526667-.006l.7593337-.17866676c.04933336.04200002.09933339.08266671.15000008.12266673l-.02733335.7800004v.01c0 .12466673.10200005.22666678.22666678.22666678.03333335 0 .06600004-.00733334.09600005-.02133335l.70866702-.32266683c.05733336.03200002.11466673.0626667.17266676.09266672l.1253334.76800038c.01866667.11000006.11466672.19133343.2260001.19133343.04733336 0 .09400005-.01466667.13266674-.04200002l.63133365-.4546669c.0626667.02000002.12466673.03933336.1880001.05733337l.2726668.72866703c.03266668.08933338.11800005.1493334.21333343.1493334.06333337 0 .12400007-.02666667.16733342-.07333336l.53200027-.57000029c.06400003.00733334.12866673.01333334.19333343.01933334l.41066687.66333367c.04200002.0666667.11533339.10733339.1940001.10733339.0786667 0 .15200007-.04066669.1940001-.10733339l.41066686-.66333367c.0646667-.006.1293334-.012.19333343-.01933334l.5313336.57000029c.04333336.04533335.10333339.07133337.16666675.07133337.09466672 0 .1800001-.0586667.21400011-.14733341l.2726668-.72866703c.06333337-.01800001.12600007-.03733335.1880001-.05733336l.63133365.45466689c.03866668.02866668.08600004.04333335.13400006.04333335.11200006 0 .2080001-.08200004.22466678-.19266676l.1253334-.76800038c.05800003-.03000002.11533339-.06133337.17266675-.09266672l.70866702.32266683c.02933335.01333334.06133337.02000001.09400005.02000001.1253334 0 .22866678-.10266672.22866678-.22866678v-.00666667l-.02733335-.78000039c.0506667-.04000002.10066672-.0806667.14933341-.12266673l.75933371.17866676c.01666668.004.03466669.006.05200003.006.1253334 0 .22866678-.10333338.22866678-.22866678 0-.01733334-.002-.03466668-.006-.05133336l-.17866676-.76000038c.04133336-.04933336.08266671-.09933338.12266673-.15000007l.7800004.02733334h.01066666c.12466673 0 .22666678-.10200005.22666678-.22666678 0-.03333335-.00733333-.06600003-.02133334-.09600004l-.32266683-.70866702c.03133335-.05733337.0626667-.11466673.09266671-.17266676l.76800039-.12466673c.11000005-.01866667.19066676-.11466672.19066676-.2260001 0-.04733337-.01466667-.09400006-.04200002-.13266674l-.4546669-.63133365.05733337-.1880001.72866703-.2726668c.08933338-.03333335.14866674-.11866672.14866674-.2140001 0-.06333337-.02666668-.1233334-.0726667-.16666676l-.57000029-.53200026c.00666667-.06400003.01333334-.12866673.01866668-.19333343l.66333366-.41066687c.06800004-.04066669.10933339-.11466673.10933339-.1940001 0-.07933337-.04133335-.15333341-.10933339-.1940001h.00066667zm-4.43933555 5.50200275c-.21600011-.04600002-.37200019-.23866678-.37200019-.45933356 0-.25800013.21266677-.4706669.4706669-.4706669.03266669 0 .06600003.004.09800005.01066667.2160001.0466667.37133352.23866679.37133352.46000023 0 .25733346-.2120001.47000024-.47000024.47000024-.03333335 0-.06600003-.004-.09866671-.01066668h.00066667zm-.22533345-1.52400076c-.02933335-.00666667-.06000003-.00933334-.09000005-.00933334-.20133343 0-.37666685.14200008-.4180002.33866684l-.23533346 1.09866722c-.72666703.33000016-1.5333341.51333359-2.38333452.51333359-.84066709.00133333-1.67133417-.1820001-2.43333455-.53600027L5.331336 12.0906727c-.04133336-.19666676-.21666678-.33866683-.41733354-.33866683-.03066669 0-.0606667.00333333-.09066672.01l-.97000048.2080001c-.18000009-.18533342-.34800017-.38333352-.50133358-.59133362h4.72000236c.05333336 0 .08933337-.00933334.08933337-.05800003V9.65067149c0-.04866669-.03533335-.05800003-.08933337-.05800003H6.69133668v-1.0586672h1.49333408c.13600007 0 .72866703.0386667.91800046.7960004.05933336.23266679.18933343.99066717.2786668 1.23333395.08866671.27200014.45000023.81533375.83533375.81533375h2.35200118c.02866668-.00066667.05733336-.00333334.08533338-.00866668-.16333342.22133345-.34200017.43133355-.53466694.62733365l-.99266716-.21333344zM4.5980023 13.28533998c-.03266668.00666667-.06533337.01066667-.09866672.01066667-.25800013 0-.47000023-.21266677-.47000023-.47000024 0-.22133344.1553334-.41333354.37133352-.46000023.03266668-.00666667.06533336-.01066667.09866671-.01066667.25800013 0 .47000024.21266677.47000024.4706669 0 .22066678-.15533341.41266688-.37133352.45933357zM2.80733474 6.024003c.03066668.06400003.04666669.1333334.04666669.2040001 0 .25800013-.2120001.47000024-.47000024.47000024-.19066676 0-.36333351-.11600006-.43533355-.29266681-.02266668-.05600003-.03466668-.11666673-.03466668-.17733343 0-.25733346.2120001-.47000023.47000023-.47000023.1800001 0 .3453335.10400005.42333355.26600013zm-.55000028 1.30466732l1.01066717-.44933356c.15466675-.0686667.2546668-.2220001.2546668-.39133353 0-.06000003-.01266668-.11933339-.03733335-.17400008l-.2080001-.4706669h.81866707v3.68933517H2.44466789c-.20333344-.71600035-.26733347-1.4646674-.18666676-2.20466777l-.00066667.00066667zm4.43466889-.35800018V5.88333628h1.9493343c.10066672 0 .71066703.11666672.71066703.57266695 0 .37866685-.46800024.51466692-.8526671.51466692H6.69200335zm7.08400354.97866716c0 .14400007-.00533334.28733348-.01600001.42866688h-.59266696c-.05933337 0-.08333338.03866669-.08333338.09733338v.27200014c0 .64066698-.36133351.78000039-.67800034.81533374-.30133348.03400002-.63533365-.12600006-.676667-.31066682-.1780001-1.0000005-.47400024-1.21400061-.94200047-1.58266746.58066695-.36866685 1.18466726-.91266712 1.18466726-1.64066749 0-.7860004-.5393336-1.28133397-.90666712-1.52466743-.5153336-.34000017-1.08600055-.4080002-1.24000062-.4080002H3.6966685c.8466671-.94666714 1.98333433-1.5880008 3.23133495-1.82400091l.72266703.75800038c.0806667.0846667.19266676.13266673.30933349.13266673.11000005 0 .2160001-.04266669.29533348-.11866673l.8080004-.77333372c1.6666675.31266683 3.11400156 1.343334 3.95400198 2.81600141l-.5533336 1.25000063c-.09466672.21466677.00333333.46933356.21733343.56533361l1.06533387.47333357c.01866668.18933343.02800001.3800002.02800001.57400029h.00133334zM7.65133716 1.6280008c.08733338-.08333337.20333343-.13000006.32400016-.13000006.25733346 0 .46933357.2120001.46933357.46933357 0 .12866673-.0526667.25133346-.1453334.34000017-.08533338.07333337-.19466677.11400005-.3073335.11400005-.25733346 0-.47000023-.2120001-.47000023-.47000023 0-.12000006.0466667-.23600012.1293334-.3233335zm5.49133608 4.41866888c.10466672-.23733345.38200019-.34400017.61866697-.23866679.17000009.07533338.28000014.24400013.28000014.43000022 0 .25800013-.2120001.47000023-.47000023.47000023-.25733346 0-.47000024-.2120001-.47000024-.47000023 0-.06600003.01400001-.13066673.0406667-.19066676l.00066666-.00066667z"/></svg>