<svg xmlns="http://www.w3.org/2000/svg" fill-rule="evenodd" stroke-linejoin="round" stroke-miterlimit="2" clip-rule="evenodd" viewBox="0 0 16 16"><path fill-rule="nonzero" d="M3.693 11.457a.506.506 0 0 1-.523.083l-.917-.382a.506.506 0 0 1-.31-.466V5.308c0-.203.123-.388.31-.466l.917-.382a.506.506 0 0 1 .523.083l.206.176a.28.28 0 0 0-.442.228v6.107c0 .227.257.36.442.227l-.206.176z"/><path fill-rule="nonzero" d="M2.253 11.158a.506.506 0 0 1-.31-.466v-.042c0 .267.329.393.508.195l7.82-8.65a.756.756 0 0 1 .861-.146l2.496 1.202a.758.758 0 0 1 .43.682v.029a.478.478 0 0 0-.782-.37L3.9 11.281l-.206.176a.506.506 0 0 1-.523.083l-.917-.382z"/><path fill-rule="nonzero" d="M2.253 4.842a.506.506 0 0 0-.31.466v.042c0-.267.329-.393.508-.195l7.82 8.65a.756.756 0 0 0 .861.146l2.496-1.202a.758.758 0 0 0 .43-.682v-.029a.478.478 0 0 1-.782.37L3.9 4.719l-.206-.176a.506.506 0 0 0-.523-.083l-.917.382z"/><path fill-rule="nonzero" d="M11.133 13.951a.757.757 0 0 1-.862-.146c.28.28.758.081.758-.314V2.51a.443.443 0 0 0-.758-.314.756.756 0 0 1 .861-.146l2.496 1.2a.758.758 0 0 1 .43.682v8.138c0 .29-.168.556-.43.682l-2.496 1.2z"/><path fill-opacity=".25" d="M10.636 14.007a.754.754 0 0 0 .496-.056l2.496-1.2a.758.758 0 0 0 .43-.682V3.93a.758.758 0 0 0-.43-.682l-2.496-1.2a.756.756 0 0 0-.86.146l-4.024 4.45-2.35-1.926-.205-.176a.506.506 0 0 0-.523-.083l-.917.382a.506.506 0 0 0-.31.466v5.384c0 .203.123.388.31.466l.917.382a.506.506 0 0 0 .523-.083l.206-.176 2.35-1.926 4.022 4.45c.1.1.227.17.365.202zm.393-8.572L7.9 8l3.128 2.565v-5.13zm-7.572.833L5.023 8 3.457 9.732V6.268z"/></svg>